<?xml version="1.0" encoding="UTF-8"?>
<svg id="Layer_2" data-name="Layer 2" xmlns="http://www.w3.org/2000/svg" viewBox="0 0 658.05 205.33">
  <defs>
    <style>
      .cls-1 {
        fill: #fff;
      }

      .cls-2 {
        fill: #27a9b8;
      }

      .cls-3 {
        fill: none;
        stroke: #27a9b8;
        stroke-width: 4.95px;
      }
    </style>
  </defs>
  <g id="_Ñëîé_1" data-name="Ñëîé 1">
    <g>
      <path class="cls-2" d="M205.74,152.48v-62.33h7.64v22.66h.17c3.3-4.77,7.81-6.95,13.11-7.03,12.07,0,18.93,9.9,18.93,22.66,0,10.85-4.51,25.35-19.97,25.35-7.73,0-10.94-4.43-12.5-6.94h-.17v5.64h-7.21ZM225.28,112.63c-11.03,0-12.24,11.89-12.24,19.27,0,12.07,7.55,15.28,12.41,15.28,8.33,0,12.24-7.55,12.24-17.54,0-5.82-.61-17.02-12.41-17.02Z"/>
      <path class="cls-2" d="M250.02,120.88c.35-10.85,7.55-15.11,18.75-15.11,3.65,0,16.84,1.04,16.84,12.67v26.13c0,1.91.96,2.69,2.52,2.69.69,0,1.65-.17,2.52-.35v5.56c-1.3.35-2.43.87-4.17.87-6.77,0-7.81-3.47-8.07-6.94-2.95,3.21-7.55,7.38-16.41,7.38-8.33,0-14.24-5.29-14.24-13.11,0-3.82,1.13-12.67,13.8-14.24l12.59-1.56c1.82-.17,3.99-.87,3.99-5.38,0-4.77-3.47-7.38-10.68-7.38-8.68,0-9.9,5.3-10.42,8.77h-7.03ZM277.97,129.3c-1.22.95-3.13,1.65-12.59,2.86-3.73.52-9.72,1.65-9.72,7.38,0,4.95,2.52,7.9,8.25,7.9,7.12,0,14.06-4.6,14.06-10.68v-7.47Z"/>
      <path class="cls-2" d="M331.19,152.48h-7.64v-27.95c0-7.9-2.26-11.89-9.72-11.89-4.34,0-11.98,2.78-11.98,15.11v24.74h-7.64v-45.4h7.21v6.42h.17c1.65-2.43,5.9-7.73,13.72-7.73,7.03,0,15.89,2.86,15.89,15.8v30.91Z"/>
      <path class="cls-2" d="M375.81,152.48h-7.21v-6.25h-.17c-3.3,6.16-8.51,7.55-12.93,7.55-15.45,0-19.97-14.5-19.97-25.35,0-12.76,6.86-22.66,18.93-22.66,8.25,0,11.72,5.12,13.54,7.73h.17v-23.35h7.64v62.33ZM355.67,147.18c4.86,0,12.41-3.21,12.41-15.28,0-7.38-1.22-19.27-12.24-19.27-11.81,0-12.41,11.2-12.41,17.02,0,9.98,3.91,17.54,12.24,17.54Z"/>
      <path class="cls-2" d="M413.92,122.35c-.95-6.08-4.34-9.72-10.77-9.72-9.46,0-12.5,9.03-12.5,17.1s1.91,17.45,12.41,17.45c5.12,0,9.55-3.82,10.85-10.77h7.38c-.78,7.21-5.21,17.36-18.49,17.36s-20.31-9.64-20.31-22.74c0-14.06,6.77-25.26,21.79-25.26,11.89,0,16.41,8.68,17.02,16.58h-7.38Z"/>
      <path class="cls-2" d="M424.34,120.88c.35-10.85,7.55-15.11,18.75-15.11,3.65,0,16.84,1.04,16.84,12.67v26.13c0,1.91.96,2.69,2.52,2.69.69,0,1.65-.17,2.52-.35v5.56c-1.3.35-2.43.87-4.17.87-6.77,0-7.81-3.47-8.07-6.94-2.95,3.21-7.55,7.38-16.41,7.38-8.33,0-14.24-5.29-14.24-13.11,0-3.82,1.13-12.67,13.8-14.24l12.59-1.56c1.82-.17,3.99-.87,3.99-5.38,0-4.77-3.47-7.38-10.68-7.38-8.68,0-9.9,5.3-10.42,8.77h-7.03ZM452.29,129.3c-1.22.95-3.12,1.65-12.59,2.86-3.73.52-9.72,1.65-9.72,7.38,0,4.95,2.52,7.9,8.25,7.9,7.12,0,14.06-4.6,14.06-10.68v-7.47Z"/>
      <path class="cls-2" d="M468.53,107.07h7.21v6.42h.17c1.65-2.43,5.56-7.73,13.72-7.73s10.76,4.95,12.07,7.38c3.82-4.25,6.86-7.38,13.89-7.38,4.86,0,14.06,2.52,14.06,15.28v31.43h-7.64v-29.34c0-6.25-1.91-10.5-8.42-10.5s-10.68,6.08-10.68,12.15v27.69h-7.64v-31.43c0-3.82-1.48-8.42-7.12-8.42-4.34,0-11.98,2.78-11.98,15.11v24.74h-7.64v-45.4Z"/>
      <path class="cls-2" d="M535.9,107.07h7.21v6.42h.17c1.82-2.6,5.3-7.73,13.54-7.73,12.07,0,18.93,9.9,18.93,22.66,0,10.85-4.51,25.35-19.97,25.35-6.08,0-10.07-2.86-12.07-6.08h-.17v22.75h-7.64v-63.37ZM555.6,147.18c8.33,0,12.24-7.55,12.24-17.54,0-5.82-.61-17.02-12.41-17.02-11.03,0-12.24,11.89-12.24,19.27,0,12.07,7.55,15.28,12.41,15.28Z"/>
    </g>
    <polygon class="cls-2" points="135.11 147.42 33.72 147.42 73.16 62.09 174.54 62.09 135.11 147.42"/>
    <rect class="cls-3" x="2.47" y="2.47" width="653.11" height="200.38" rx="49.48" ry="49.48"/>
    <g>
      <path class="cls-1" d="M212.01,38.2v14.53h17.08v4.58h-17.08v17.86h-5.63v-41.56h25.61v4.58h-19.98Z"/>
      <path class="cls-1" d="M246.08,45.33c2.15,0,4.08.36,5.8,1.07,1.72.71,3.19,1.73,4.41,3.04s2.15,2.9,2.8,4.77c.65,1.87.97,3.95.97,6.25s-.32,4.41-.97,6.26c-.65,1.86-1.58,3.44-2.8,4.76s-2.69,2.32-4.41,3.03c-1.72.71-3.65,1.06-5.8,1.06s-4.11-.35-5.84-1.06c-1.73-.71-3.2-1.72-4.42-3.03-1.22-1.31-2.15-2.9-2.8-4.76-.65-1.86-.97-3.94-.97-6.26s.32-4.38.97-6.25c.65-1.87,1.58-3.46,2.8-4.77,1.22-1.31,2.69-2.33,4.42-3.04,1.73-.72,3.68-1.07,5.84-1.07ZM246.08,71.55c2.9,0,5.07-.97,6.5-2.91,1.43-1.94,2.15-4.66,2.15-8.13s-.71-6.23-2.15-8.18c-1.43-1.95-3.6-2.93-6.5-2.93-1.47,0-2.75.25-3.84.75-1.09.5-2,1.23-2.73,2.18s-1.27,2.11-1.62,3.49c-.36,1.38-.54,2.94-.54,4.68,0,3.48.72,6.19,2.16,8.13,1.44,1.94,3.63,2.91,6.57,2.91Z"/>
      <path class="cls-1" d="M270.18,32.45v42.72h-5.16v-42.72h5.16Z"/>
      <path class="cls-1" d="M282.13,32.45v42.72h-5.16v-42.72h5.16Z"/>
      <path class="cls-1" d="M301.12,45.33c2.15,0,4.08.36,5.8,1.07,1.72.71,3.19,1.73,4.41,3.04,1.22,1.31,2.15,2.9,2.8,4.77.65,1.87.97,3.95.97,6.25s-.32,4.41-.97,6.26c-.65,1.86-1.58,3.44-2.8,4.76-1.22,1.31-2.69,2.32-4.41,3.03-1.72.71-3.65,1.06-5.8,1.06s-4.11-.35-5.84-1.06c-1.73-.71-3.21-1.72-4.42-3.03s-2.15-2.9-2.8-4.76c-.65-1.86-.97-3.94-.97-6.26s.32-4.38.97-6.25c.65-1.87,1.58-3.46,2.8-4.77s2.69-2.33,4.42-3.04c1.73-.72,3.68-1.07,5.84-1.07ZM301.12,71.55c2.9,0,5.06-.97,6.5-2.91,1.43-1.94,2.15-4.66,2.15-8.13s-.72-6.23-2.15-8.18c-1.43-1.95-3.6-2.93-6.5-2.93-1.47,0-2.75.25-3.84.75-1.09.5-2,1.23-2.73,2.18-.72.95-1.27,2.11-1.62,3.49-.36,1.38-.54,2.94-.54,4.68,0,3.48.72,6.19,2.16,8.13,1.44,1.94,3.63,2.91,6.57,2.91Z"/>
      <path class="cls-1" d="M359.96,45.79l-9.51,29.38h-4.09c-.5,0-.85-.33-1.04-.99l-6.5-19.92c-.16-.44-.28-.89-.38-1.35-.1-.45-.19-.9-.29-1.35-.1.45-.19.89-.29,1.35-.1.46-.22.91-.38,1.38l-6.61,19.89c-.17.66-.56.99-1.16.99h-3.89l-9.51-29.38h4.06c.41,0,.75.11,1.03.32s.47.46.57.75l5.63,18.91c.33,1.39.59,2.71.78,3.94.17-.64.35-1.29.54-1.94.18-.66.38-1.32.59-2l6.21-19.02c.1-.29.27-.53.51-.72.24-.19.54-.29.88-.29h2.26c.39,0,.71.1.96.29.25.19.42.43.52.72l6.06,19.02c.21.68.41,1.34.58,2s.34,1.3.49,1.94c.1-.64.22-1.28.36-1.93.14-.65.3-1.32.48-2.02l5.74-18.91c.1-.31.28-.57.55-.77.27-.2.59-.3.96-.3h3.89Z"/>
      <path class="cls-1" d="M375.19,75.17v-29.38h3.1c.73,0,1.19.36,1.36,1.07l.38,3.02c1.08-1.33,2.3-2.43,3.65-3.28,1.35-.85,2.92-1.28,4.7-1.28,1.97,0,3.57.55,4.8,1.65,1.23,1.1,2.11,2.59,2.65,4.47.42-1.06.97-1.98,1.64-2.75s1.42-1.41,2.25-1.91,1.72-.87,2.65-1.1c.94-.23,1.89-.35,2.86-.35,1.55,0,2.92.25,4.13.74s2.23,1.21,3.07,2.16c.84.95,1.48,2.11,1.93,3.5.44,1.38.67,2.96.67,4.74v18.71h-5.19v-18.71c0-2.3-.5-4.05-1.51-5.23-1.01-1.19-2.46-1.78-4.35-1.78-.85,0-1.66.15-2.42.45s-1.44.74-2.02,1.32-1.04,1.31-1.38,2.19c-.34.88-.51,1.9-.51,3.06v18.71h-5.19v-18.71c0-2.36-.47-4.12-1.42-5.28-.95-1.16-2.33-1.74-4.15-1.74-1.28,0-2.46.34-3.54,1.03-1.08.69-2.08,1.62-2.99,2.8v21.89h-5.19Z"/>
      <path class="cls-1" d="M444.99,71.05c-.64.77-1.4,1.45-2.29,2.02-.89.57-1.84,1.04-2.86,1.41-1.01.37-2.06.64-3.15.83s-2.16.28-3.22.28c-2.03,0-3.9-.34-5.61-1.03-1.71-.69-3.19-1.69-4.44-3.02-1.25-1.32-2.22-2.96-2.92-4.92s-1.04-4.2-1.04-6.73c0-2.05.31-3.96.94-5.74.63-1.78,1.53-3.32,2.71-4.62,1.18-1.3,2.62-2.33,4.32-3.07s3.62-1.12,5.74-1.12c1.76,0,3.39.29,4.89.88s2.79,1.44,3.89,2.55c1.09,1.11,1.95,2.48,2.57,4.12.62,1.63.93,3.49.93,5.58,0,.81-.09,1.35-.26,1.62-.17.27-.5.41-.99.41h-19.63c.06,1.86.31,3.47.77,4.84.45,1.37,1.09,2.52,1.9,3.44.81.92,1.78,1.61,2.9,2.06,1.12.46,2.38.68,3.77.68,1.29,0,2.41-.15,3.35-.45.94-.3,1.74-.62,2.42-.97.68-.35,1.24-.67,1.7-.97.45-.3.85-.45,1.17-.45.42,0,.75.17.99.49l1.45,1.88ZM440.82,57.28c0-1.2-.17-2.3-.51-3.29-.34-1-.83-1.86-1.48-2.58-.65-.72-1.44-1.29-2.36-1.68s-1.98-.59-3.16-.59c-2.47,0-4.43.72-5.87,2.16s-2.33,3.44-2.68,5.99h16.07Z"/>
      <path class="cls-1" d="M475.53,45.33c2.15,0,4.08.36,5.8,1.07,1.72.71,3.19,1.73,4.41,3.04s2.15,2.9,2.8,4.77c.65,1.87.97,3.95.97,6.25s-.32,4.41-.97,6.26c-.65,1.86-1.58,3.44-2.8,4.76s-2.69,2.32-4.41,3.03c-1.72.71-3.65,1.06-5.8,1.06s-4.11-.35-5.84-1.06c-1.73-.71-3.2-1.72-4.42-3.03-1.22-1.31-2.15-2.9-2.8-4.76-.65-1.86-.97-3.94-.97-6.26s.32-4.38.97-6.25c.65-1.87,1.58-3.46,2.8-4.77,1.22-1.31,2.69-2.33,4.42-3.04,1.73-.72,3.68-1.07,5.84-1.07ZM475.53,71.55c2.9,0,5.07-.97,6.5-2.91,1.43-1.94,2.15-4.66,2.15-8.13s-.71-6.23-2.15-8.18c-1.43-1.95-3.6-2.93-6.5-2.93-1.47,0-2.75.25-3.84.75-1.09.5-2,1.23-2.73,2.18s-1.27,2.11-1.62,3.49c-.36,1.38-.54,2.94-.54,4.68,0,3.48.72,6.19,2.16,8.13,1.44,1.94,3.63,2.91,6.57,2.91Z"/>
      <path class="cls-1" d="M499.16,50.06c.64-.71,1.31-1.36,2.03-1.94.71-.58,1.47-1.08,2.28-1.49.8-.42,1.65-.73,2.55-.96.9-.22,1.87-.33,2.92-.33,1.6,0,3.02.27,4.25.8,1.23.53,2.25,1.29,3.07,2.26.82.98,1.45,2.15,1.87,3.52.43,1.37.64,2.89.64,4.55v18.71h-5.19v-18.71c0-2.22-.51-3.95-1.52-5.18-1.01-1.23-2.56-1.84-4.62-1.84-1.53,0-2.95.37-4.28,1.1-1.33.74-2.55,1.73-3.67,2.99v21.63h-5.19v-29.38h3.1c.73,0,1.19.36,1.36,1.07l.41,3.19Z"/>
    </g>
  </g>
</svg>