<?xml version="1.0" encoding="UTF-8"?>
<svg id="Layer_2" data-name="Layer 2" xmlns="http://www.w3.org/2000/svg" xmlns:xlink="http://www.w3.org/1999/xlink" viewBox="0 0 660.53 210.28">
  <defs>
    <style>
      .cls-1 {
        fill: url(#linear-gradient-15);
      }

      .cls-2 {
        fill: url(#linear-gradient-13);
      }

      .cls-3 {
        fill: url(#linear-gradient-2);
      }

      .cls-4 {
        fill: none;
        stroke: url(#linear-gradient);
        stroke-width: 4.95px;
      }

      .cls-5 {
        fill: url(#linear-gradient-10);
      }

      .cls-6 {
        fill: url(#linear-gradient-12);
      }

      .cls-7 {
        fill: #fff;
      }

      .cls-8 {
        fill: url(#linear-gradient-4);
      }

      .cls-9 {
        fill: url(#linear-gradient-3);
      }

      .cls-10 {
        fill: url(#linear-gradient-5);
      }

      .cls-11 {
        fill: url(#linear-gradient-8);
      }

      .cls-12 {
        fill: url(#linear-gradient-14);
      }

      .cls-13 {
        fill: url(#linear-gradient-7);
      }

      .cls-14 {
        fill: url(#linear-gradient-9);
      }

      .cls-15 {
        fill: url(#linear-gradient-11);
      }

      .cls-16 {
        fill: url(#linear-gradient-6);
      }

      .cls-17 {
        fill: url(#linear-gradient-16);
      }
    </style>
    <linearGradient id="linear-gradient" x1="1297.26" y1="8392.56" x2="1297.26" y2="7487.41" gradientTransform="translate(-967 7871.1) scale(1 -1)" gradientUnits="userSpaceOnUse">
      <stop offset="0" stop-color="#f8a01d"/>
      <stop offset=".71" stop-color="#f26e23"/>
      <stop offset="1" stop-color="#ef5826"/>
    </linearGradient>
    <linearGradient id="linear-gradient-2" x1="1124.22" y1="7922.86" x2="1124.22" y2="7696.25" xlink:href="#linear-gradient"/>
    <linearGradient id="linear-gradient-3" x1="1092.16" y1="7922.86" x2="1092.16" y2="7696.25" xlink:href="#linear-gradient"/>
    <linearGradient id="linear-gradient-4" x1="1061.65" y1="7922.86" x2="1061.65" y2="7696.25" xlink:href="#linear-gradient"/>
    <linearGradient id="linear-gradient-5" x1="1056.79" y1="7922.86" x2="1056.79" y2="7696.25" xlink:href="#linear-gradient"/>
    <linearGradient id="linear-gradient-6" x1="1051.87" y1="7922.86" x2="1051.87" y2="7696.25" xlink:href="#linear-gradient"/>
    <linearGradient id="linear-gradient-7" x1="1032.91" y1="7922.86" x2="1032.91" y2="7696.25" xlink:href="#linear-gradient"/>
    <linearGradient id="linear-gradient-8" x1="1037.42" y1="7922.86" x2="1037.42" y2="7696.25" xlink:href="#linear-gradient"/>
    <linearGradient id="linear-gradient-9" x1="1042.22" y1="7922.84" x2="1042.22" y2="7696.23" xlink:href="#linear-gradient"/>
    <linearGradient id="linear-gradient-10" x1="1047.04" y1="7922.86" x2="1047.04" y2="7696.25" xlink:href="#linear-gradient"/>
    <linearGradient id="linear-gradient-11" x1="1087.04" y1="7922.86" x2="1087.04" y2="7696.25" xlink:href="#linear-gradient"/>
    <linearGradient id="linear-gradient-12" x1="1066.71" y1="7922.86" x2="1066.71" y2="7696.25" xlink:href="#linear-gradient"/>
    <linearGradient id="linear-gradient-13" x1="1081.88" y1="7922.86" x2="1081.88" y2="7696.25" xlink:href="#linear-gradient"/>
    <linearGradient id="linear-gradient-14" x1="1071.73" y1="7922.86" x2="1071.73" y2="7696.25" xlink:href="#linear-gradient"/>
    <linearGradient id="linear-gradient-15" x1="1076.76" y1="7922.86" x2="1076.76" y2="7696.25" xlink:href="#linear-gradient"/>
    <linearGradient id="linear-gradient-16" x1="1377.55" y1="7915.37" x2="1377.55" y2="7646.47" xlink:href="#linear-gradient"/>
  </defs>
  <g id="Layer_1-2" data-name="Layer 1">
    <rect class="cls-4" x="2.47" y="2.47" width="655.58" height="205.33" rx="49.48" ry="49.48"/>
    <path class="cls-3" d="M186.3,116.26c.02-8.07-6.7-14.6-14.95-14.6-2.06,0-4.02.41-5.83,1.13-1.21-13.1-12.53-23.38-26.33-23.38-3.39,0-6.67.61-9.58,1.74-1.16.41-1.48.81-1.48,1.7v46.19c0,.92.74,1.59,1.63,1.7h41.57c8.25,0,14.97-6.48,14.97-14.48Z"/>
    <path class="cls-9" d="M126.77,84.39c-.07-.56-.38-1.07-.85-1.33-.21-.15-.54-.26-.8-.26-.42,0-.8.15-1.07.35-.36.31-.59.78-.63,1.24v.15l-.63,32.69.33,6.01.32,5.86c.06.87.8,1.59,1.7,1.59s1.63-.72,1.63-1.59l.75-11.88-.75-32.83Z"/>
    <path class="cls-8" d="M94.59,92.27c.54,0,1.01.41,1.01.98l1.01,24.05-1.01,12.54c0,.57-.47.98-1.01.98-.59,0-1.01-.41-1.06-.98l-.84-12.54.84-24.05c.05-.57.47-.98,1.06-.98Z"/>
    <path class="cls-10" d="M90.63,97.65c0-.52-.42-.93-.89-.93-.54,0-.9.41-.95.93l-.96,19.53.96,12.63c.05.52.41.92.95.92.47,0,.89-.41.89-.92l1.11-12.63-1.11-19.53Z"/>
    <path class="cls-16" d="M86.77,117.18l-1.11-12.02c-.05-.41-.42-.78-.84-.78s-.8.37-.8.78l-1.06,12.02,1.06,12.63c0,.46.39.81.8.81s.79-.35.84-.81l1.11-12.63Z"/>
    <path class="cls-13" d="M66.3,110.6c-.06-.26-.21-.46-.48-.46s-.42.2-.48.46l-.89,6.59.89,6.47c.06.26.21.46.48.46s.42-.2.48-.46l1.06-6.47-1.06-6.59Z"/>
    <path class="cls-11" d="M70.31,106.09c.27,0,.48.2.54.46l1.37,10.64-1.37,10.43c-.06.26-.27.46-.54.46s-.47-.2-.47-.52l-1.22-10.38,1.22-10.64c0-.26.21-.46.47-.46Z"/>
    <path class="cls-14" d="M75.72,104.59c0-.35-.26-.61-.59-.61s-.59.26-.63.61l-1.1,12.6,1.1,12.17c.06.32.33.57.63.57.33,0,.59-.26.59-.57l1.32-12.17-1.32-12.6Z"/>
    <path class="cls-5" d="M79.95,103.57c.36,0,.69.26.74.67l1.22,12.95-1.22,12.54c-.05.41-.38.67-.74.67s-.69-.26-.69-.67l-1.1-12.54,1.1-12.95c0-.41.33-.67.69-.67Z"/>
    <path class="cls-15" d="M120.83,85.89c.42.26.69.72.75,1.24l.62,30.11-.59,10.84-.05,1.24c0,.43-.16.78-.48,1.04-.27.26-.65.46-1.07.46-.47,0-.89-.22-1.21-.57-.21-.26-.33-.55-.33-.87v-.06c-.59-12.08-.59-12.13-.59-12.13l.53-29.74.06-.31c0-.52.27-.98.69-1.24.24-.15.53-.26.84-.26s.57.11.83.26Z"/>
    <path class="cls-6" d="M100.78,91.18c-.04-.61-.51-1.13-1.16-1.13-.59,0-1.1.52-1.1,1.13l-.84,26.01.84,12.43c.05.61.53,1.07,1.1,1.07.63,0,1.1-.46,1.16-1.07l.95-12.43-.95-26.01Z"/>
    <path class="cls-2" d="M114.85,90.51c.8,0,1.37.61,1.43,1.44l.74,25.29-.74,12.14c0,.78-.63,1.39-1.43,1.39s-1.42-.61-1.48-1.39l-.63-12.14.63-25.29c.06-.83.68-1.44,1.48-1.44Z"/>
    <path class="cls-12" d="M105.92,90.31c-.05-.67-.59-1.24-1.27-1.24-.63,0-1.22.57-1.22,1.24l-.74,26.88.74,12.38c.06.67.59,1.18,1.22,1.18.68,0,1.22-.52,1.27-1.18l.84-12.38-.84-26.88Z"/>
    <path class="cls-1" d="M109.73,89.7c.74,0,1.32.55,1.32,1.28l.8,26.21-.8,12.28c0,.7-.59,1.28-1.32,1.28s-1.26-.55-1.31-1.28l-.75-12.28.75-26.21c0-.7.57-1.28,1.31-1.28Z"/>
    <path class="cls-17" d="M250.97,161.01c-8.33,0-13.81-3.92-14.24-10.44l-.03-.38h6.22l.05.3c.47,3.12,3.67,5.06,8.22,5.06s7.45-2.04,7.45-5.16v-.02c0-2.72-1.89-4.18-6.57-5.16l-3.9-.8c-7.14-1.48-10.66-4.8-10.66-10.21v-.02c.02-6.39,5.63-10.72,13.46-10.72s13.1,4.18,13.48,10.39l.03.43h-6.22l-.05-.3c-.43-3.17-3.22-5.06-7.29-5.06-4.26.03-6.9,2.01-6.9,4.91v.02c0,2.57,1.99,4.08,6.37,4.98l3.92.8c7.55,1.56,10.84,4.63,10.84,10.29v.02c0,6.77-5.33,11.07-14.18,11.07ZM286.01,161.01c-10.62,0-17.23-7.22-17.23-18.77v-.05c0-11.52,6.66-18.74,17.23-18.74s17.21,7.22,17.21,18.74v.05c0,11.55-6.59,18.77-17.21,18.77ZM286.01,155.37c6.57,0,10.62-5.13,10.62-13.13v-.05c0-8.05-4.13-13.11-10.62-13.11s-10.62,5.03-10.62,13.11v.05c0,8.08,4.13,13.13,10.62,13.13ZM323.34,161.01c-9.2,0-14.94-5.41-14.94-13.43v-23.5h6.49v22.97c0,5.03,3.07,8.33,8.45,8.33s8.43-3.3,8.43-8.33v-22.97h6.47v23.5c0,8.02-5.66,13.43-14.9,13.43ZM344.68,160.38v-36.3h5.83l17.69,25.43h.15v-25.43h6.44v36.3h-5.79l-17.73-25.53h-.13v25.53h-6.46ZM381.2,160.38v-36.3h13.26c10.82,0,17.26,6.54,17.26,18.01v.05c0,11.5-6.39,18.24-17.26,18.24h-13.26ZM387.69,154.89h6.09c7.3,0,11.32-4.45,11.32-12.73v-.05c0-8.1-4.1-12.55-11.32-12.55h-6.09v25.33ZM432.67,161.01c-10.44,0-17.03-7.2-17.03-18.79v-.02c0-11.6,6.62-18.74,17.03-18.74,8.36,0,14.49,5.21,15.45,12.6l.03.25h-6.37l-.12-.48c-1.06-4.15-4.26-6.74-8.99-6.74-6.34,0-10.39,5.06-10.39,13.11v.02c0,8.08,4.08,13.16,10.39,13.16,4.63,0,7.88-2.49,9.06-6.97l.08-.25h6.36l-.05.25c-.93,7.45-7.09,12.6-15.45,12.6ZM453.1,160.38v-36.3h6.49v30.84h16.48v5.46h-22.97ZM495.21,161.01c-10.61,0-17.23-7.22-17.23-18.77v-.05c0-11.52,6.67-18.74,17.23-18.74s17.21,7.22,17.21,18.74v.05c0,11.55-6.59,18.77-17.21,18.77ZM495.21,155.37c6.57,0,10.62-5.13,10.62-13.13v-.05c0-8.05-4.13-13.11-10.62-13.11s-10.61,5.03-10.61,13.11v.05c0,8.08,4.12,13.13,10.61,13.13ZM532.55,161.01c-9.21,0-14.95-5.41-14.95-13.43v-23.5h6.49v22.97c0,5.03,3.07,8.33,8.46,8.33s8.42-3.3,8.42-8.33v-22.97h6.47v23.5c0,8.02-5.66,13.43-14.89,13.43ZM553.88,160.38v-36.3h13.26c10.81,0,17.25,6.54,17.25,18.01v.05c0,11.5-6.39,18.24-17.25,18.24h-13.26ZM560.37,154.89h6.09c7.29,0,11.32-4.45,11.32-12.73v-.05c0-8.1-4.1-12.55-11.32-12.55h-6.09v25.33Z"/>
    <g>
      <path class="cls-7" d="M247.64,62.67v14.53h17.08v4.58h-17.08v17.86h-5.62v-41.56h25.61v4.58h-19.98Z"/>
      <path class="cls-7" d="M281.71,69.8c2.15,0,4.08.36,5.8,1.07,1.72.71,3.19,1.73,4.41,3.04,1.22,1.31,2.15,2.9,2.8,4.77.65,1.87.97,3.95.97,6.25s-.32,4.41-.97,6.26c-.65,1.86-1.58,3.44-2.8,4.76-1.22,1.31-2.69,2.32-4.41,3.03-1.72.71-3.65,1.06-5.8,1.06s-4.11-.35-5.84-1.06c-1.73-.71-3.21-1.72-4.42-3.03s-2.15-2.9-2.8-4.76c-.65-1.86-.97-3.94-.97-6.26s.32-4.38.97-6.25c.65-1.87,1.58-3.46,2.8-4.77s2.69-2.33,4.42-3.04c1.73-.72,3.68-1.07,5.84-1.07ZM281.71,96.02c2.9,0,5.06-.97,6.5-2.91,1.43-1.94,2.15-4.66,2.15-8.13s-.71-6.23-2.15-8.18c-1.43-1.95-3.6-2.93-6.5-2.93-1.47,0-2.75.25-3.84.75-1.09.5-2,1.23-2.73,2.18-.72.95-1.27,2.11-1.62,3.49-.36,1.38-.54,2.94-.54,4.68,0,3.48.72,6.19,2.16,8.13,1.44,1.94,3.63,2.91,6.57,2.91Z"/>
      <path class="cls-7" d="M305.81,56.93v42.72h-5.16v-42.72h5.16Z"/>
      <path class="cls-7" d="M317.76,56.93v42.72h-5.16v-42.72h5.16Z"/>
      <path class="cls-7" d="M336.75,69.8c2.15,0,4.08.36,5.8,1.07,1.72.71,3.19,1.73,4.41,3.04,1.22,1.31,2.15,2.9,2.8,4.77.65,1.87.97,3.95.97,6.25s-.32,4.41-.97,6.26c-.65,1.86-1.58,3.44-2.8,4.76-1.22,1.31-2.69,2.32-4.41,3.03-1.72.71-3.65,1.06-5.8,1.06s-4.11-.35-5.84-1.06c-1.73-.71-3.2-1.72-4.42-3.03-1.22-1.31-2.15-2.9-2.8-4.76-.65-1.86-.97-3.94-.97-6.26s.32-4.38.97-6.25c.65-1.87,1.58-3.46,2.8-4.77,1.22-1.31,2.69-2.33,4.42-3.04,1.73-.72,3.68-1.07,5.84-1.07ZM336.75,96.02c2.9,0,5.07-.97,6.5-2.91,1.43-1.94,2.15-4.66,2.15-8.13s-.71-6.23-2.15-8.18c-1.43-1.95-3.6-2.93-6.5-2.93-1.47,0-2.75.25-3.84.75-1.09.5-2,1.23-2.73,2.18-.72.95-1.27,2.11-1.62,3.49-.36,1.38-.54,2.94-.54,4.68,0,3.48.72,6.19,2.16,8.13,1.44,1.94,3.63,2.91,6.57,2.91Z"/>
      <path class="cls-7" d="M395.59,70.27l-9.51,29.38h-4.09c-.5,0-.85-.33-1.04-.99l-6.5-19.92c-.16-.44-.28-.89-.38-1.35-.1-.45-.19-.9-.29-1.35-.1.45-.19.89-.29,1.35-.1.46-.22.91-.38,1.38l-6.61,19.89c-.17.66-.56.99-1.16.99h-3.88l-9.51-29.38h4.06c.41,0,.75.11,1.03.32.28.21.47.46.57.75l5.62,18.91c.33,1.39.59,2.71.78,3.94.17-.64.35-1.29.54-1.94s.38-1.32.59-2l6.21-19.02c.1-.29.27-.53.51-.72.24-.19.54-.29.88-.29h2.26c.39,0,.71.1.96.29.25.19.42.43.52.72l6.06,19.02c.21.68.41,1.34.58,2s.34,1.3.49,1.94c.1-.64.22-1.28.36-1.93.14-.65.3-1.32.48-2.02l5.74-18.91c.1-.31.28-.57.55-.77.27-.2.59-.3.96-.3h3.89Z"/>
      <path class="cls-7" d="M410.82,99.64v-29.38h3.1c.74,0,1.19.36,1.36,1.07l.38,3.02c1.08-1.33,2.3-2.43,3.65-3.28,1.35-.85,2.92-1.28,4.7-1.28,1.97,0,3.57.55,4.8,1.65,1.23,1.1,2.11,2.59,2.65,4.47.42-1.06.97-1.98,1.64-2.75s1.42-1.41,2.25-1.91c.83-.5,1.72-.87,2.65-1.1.94-.23,1.89-.35,2.86-.35,1.55,0,2.92.25,4.13.74,1.21.49,2.23,1.21,3.07,2.16.84.95,1.48,2.11,1.93,3.5s.67,2.96.67,4.74v18.71h-5.19v-18.71c0-2.3-.5-4.05-1.51-5.23-1.01-1.19-2.46-1.78-4.35-1.78-.85,0-1.66.15-2.42.45s-1.44.74-2.02,1.32-1.04,1.31-1.38,2.19c-.34.88-.51,1.9-.51,3.06v18.71h-5.19v-18.71c0-2.36-.47-4.12-1.42-5.28-.95-1.16-2.33-1.74-4.15-1.74-1.28,0-2.46.34-3.54,1.03-1.08.69-2.08,1.62-2.99,2.8v21.89h-5.19Z"/>
      <path class="cls-7" d="M480.62,95.53c-.64.77-1.4,1.45-2.29,2.02-.89.57-1.84,1.04-2.86,1.41-1.01.37-2.06.64-3.15.83-1.08.18-2.16.28-3.22.28-2.03,0-3.9-.34-5.61-1.03-1.71-.69-3.19-1.69-4.44-3.02s-2.22-2.96-2.92-4.92c-.7-1.95-1.04-4.2-1.04-6.73,0-2.05.31-3.96.94-5.74.63-1.78,1.53-3.32,2.71-4.62,1.18-1.3,2.62-2.33,4.32-3.07s3.62-1.12,5.74-1.12c1.76,0,3.39.29,4.89.88,1.5.59,2.79,1.44,3.88,2.55,1.09,1.11,1.95,2.48,2.57,4.12.62,1.63.93,3.49.93,5.58,0,.81-.09,1.35-.26,1.62-.17.27-.5.41-.99.41h-19.63c.06,1.86.31,3.47.77,4.84.46,1.37,1.09,2.52,1.9,3.44.81.92,1.78,1.61,2.9,2.06,1.12.46,2.38.68,3.77.68,1.29,0,2.41-.15,3.35-.45s1.74-.62,2.42-.97c.68-.35,1.24-.67,1.7-.97.46-.3.85-.45,1.18-.45.42,0,.75.17.99.49l1.45,1.88ZM476.45,81.75c0-1.2-.17-2.3-.51-3.29-.34-1-.83-1.86-1.48-2.58-.65-.72-1.44-1.29-2.36-1.68-.93-.4-1.98-.59-3.16-.59-2.47,0-4.43.72-5.87,2.16-1.44,1.44-2.33,3.44-2.68,5.99h16.07Z"/>
      <path class="cls-7" d="M511.16,69.8c2.15,0,4.08.36,5.8,1.07,1.72.71,3.19,1.73,4.41,3.04,1.22,1.31,2.15,2.9,2.8,4.77.65,1.87.97,3.95.97,6.25s-.32,4.41-.97,6.26c-.65,1.86-1.58,3.44-2.8,4.76-1.22,1.31-2.69,2.32-4.41,3.03-1.72.71-3.65,1.06-5.8,1.06s-4.11-.35-5.84-1.06c-1.73-.71-3.21-1.72-4.42-3.03s-2.15-2.9-2.8-4.76c-.65-1.86-.97-3.94-.97-6.26s.32-4.38.97-6.25c.65-1.87,1.58-3.46,2.8-4.77s2.69-2.33,4.42-3.04c1.73-.72,3.68-1.07,5.84-1.07ZM511.16,96.02c2.9,0,5.06-.97,6.5-2.91,1.43-1.94,2.15-4.66,2.15-8.13s-.71-6.23-2.15-8.18c-1.43-1.95-3.6-2.93-6.5-2.93-1.47,0-2.75.25-3.84.75-1.09.5-2,1.23-2.73,2.18-.72.95-1.27,2.11-1.62,3.49-.36,1.38-.54,2.94-.54,4.68,0,3.48.72,6.19,2.16,8.13,1.44,1.94,3.63,2.91,6.57,2.91Z"/>
      <path class="cls-7" d="M534.79,74.53c.64-.71,1.31-1.36,2.03-1.94.71-.58,1.47-1.08,2.28-1.49.8-.42,1.65-.73,2.55-.96.9-.22,1.87-.33,2.91-.33,1.6,0,3.02.27,4.25.8,1.23.53,2.25,1.29,3.07,2.26s1.45,2.15,1.87,3.52c.42,1.37.64,2.89.64,4.55v18.71h-5.19v-18.71c0-2.22-.51-3.95-1.52-5.18-1.01-1.23-2.56-1.84-4.62-1.84-1.53,0-2.95.37-4.28,1.1-1.32.74-2.55,1.73-3.67,2.99v21.63h-5.19v-29.38h3.1c.74,0,1.19.36,1.36,1.07l.41,3.19Z"/>
    </g>
  </g>
</svg>