<?xml version="1.0" encoding="UTF-8"?>
<svg id="Layer_2" data-name="Layer 2" xmlns="http://www.w3.org/2000/svg" viewBox="0 0 655.58 202.86">
  <defs>
    <style>
      .cls-1 {
        fill: #fff;
      }

      .cls-2 {
        stroke-width: 4.95px;
      }

      .cls-2, .cls-3 {
        fill: none;
        stroke: #1ed760;
      }

      .cls-3 {
        stroke-width: 3.71px;
      }

      .cls-4 {
        fill-rule: evenodd;
      }

      .cls-4, .cls-5 {
        fill: #1ed760;
      }
    </style>
  </defs>
  <g id="Layer_1-2" data-name="Layer 1">
    <rect class="cls-2" x="2.47" y="2.47" width="650.63" height="197.91" rx="49.48" ry="49.48"/>
    <path class="cls-3" d="M124.83,28.55c-40.25,0-72.88,32.63-72.88,72.88s32.63,72.89,72.88,72.89,72.88-32.63,72.88-72.89S165.08,28.55,124.83,28.55h0Z"/>
    <path class="cls-4" d="M167.94,93.15c-23.49-13.95-62.24-15.23-84.67-8.42-3.6,1.09-7.41-.94-8.5-4.55-1.09-3.6.94-7.4,4.54-8.5,25.75-7.82,68.54-6.31,95.59,9.75,3.24,1.92,4.3,6.11,2.38,9.34-1.92,3.24-6.11,4.31-9.34,2.38ZM167.17,113.82c-1.65,2.67-5.14,3.51-7.81,1.87-19.59-12.04-49.45-15.53-72.63-8.49-3,.9-6.18-.79-7.09-3.79-.9-3,.79-6.17,3.79-7.09,26.47-8.03,59.38-4.14,81.87,9.69,2.67,1.64,3.51,5.14,1.87,7.81ZM158.25,133.66c-1.3,2.15-4.1,2.82-6.24,1.52-17.12-10.46-38.66-12.83-64.03-7.03-2.44.56-4.88-.97-5.44-3.42-.56-2.44.97-4.88,3.42-5.44,27.76-6.34,51.58-3.61,70.79,8.13,2.14,1.3,2.81,4.1,1.5,6.24Z"/>
    <path class="cls-5" d="M257.35,155.21c-13.25,0-21.8-6.07-22.45-16.35l-.04-.62h11.01l.08.42c.74,4.33,5.34,7.04,11.71,7.04s10.52-2.82,10.52-7.08v-.03c0-3.79-2.75-5.69-9.67-7.12l-5.87-1.16c-11.02-2.2-16.58-7.46-16.58-15.84v-.04c0-10.21,8.89-16.93,21.26-16.93s20.83,6.45,21.37,16.23l.04.74h-11.02l-.03-.47c-.58-4.37-4.6-7.03-10.36-7.03-6,.04-9.59,2.78-9.59,6.76v.04c0,3.52,2.86,5.57,9.28,6.84l5.91,1.2c11.67,2.32,16.93,7.07,16.93,15.85v.04c0,10.7-8.43,17.51-22.5,17.51ZM286.04,167.77v-54.97h11.28v7.23h.27c2.25-5.02,6.77-8.08,12.64-8.08,10.52,0,16.93,8.04,16.93,21.53v.04c0,13.45-6.41,21.57-16.77,21.57-5.92,0-10.59-3.01-12.83-7.92h-.24v20.6h-11.28ZM306.52,145.74c5.61,0,9.16-4.68,9.16-12.22v-.04c0-7.57-3.55-12.17-9.16-12.17s-9.24,4.71-9.24,12.21v.04c0,7.46,3.75,12.18,9.24,12.18ZM352.06,155.09c-12.6,0-20.53-8.08-20.53-21.57v-.07c0-13.34,8.12-21.5,20.49-21.5s20.56,8.08,20.56,21.5v.07c0,13.53-8,21.57-20.52,21.57ZM352.1,146.24c5.49,0,9-4.64,9-12.72v-.07c0-8.01-3.59-12.64-9.08-12.64s-9.01,4.63-9.01,12.64v.07c0,8.12,3.52,12.72,9.09,12.72ZM394.89,155.09c-9.2,0-13.53-3.55-13.53-12.45v-21.33h-5.76v-8.51h5.76v-10.12h11.4v10.12h7.58v8.51h-7.58v20.1c0,3.86,1.74,5.18,5.14,5.18,1.01,0,1.74-.12,2.44-.2v8.28c-1.28.19-3.1.42-5.45.42ZM412.44,107.47c-3.41,0-6.03-2.67-6.03-5.88s2.62-5.87,6.03-5.87,6.03,2.67,6.03,5.87-2.63,5.88-6.03,5.88ZM406.79,154.24v-41.44h11.29v41.44h-11.29ZM428.67,154.24v-32.93h-5.64v-8.51h5.64v-3.32c0-8.12,3.87-11.87,13.65-11.87,2.08,0,4.36.2,5.68.47v7.46c-.77-.16-1.86-.2-2.9-.2-3.75,0-5.41,1.59-5.41,4.56v2.9h8.23v8.51h-7.96v32.93h-11.29ZM460.37,167.89c-2.21,0-4.45-.27-5.76-.51v-8.38c.81.15,2.12.38,3.79.38,3.36,0,5.21-.96,6.22-3.79l.5-1.35-14.65-41.44h12.41l8.74,32.4h.31l8.77-32.4h11.91l-14.23,42.18c-3.25,9.78-8.81,12.91-18.01,12.91Z"/>
    <g>
      <path class="cls-1" d="M244.67,47.46v13.03h15.31v4.11h-15.31v16.02h-5.04v-37.26h22.96v4.11h-17.91Z"/>
      <path class="cls-1" d="M275.22,53.85c1.92,0,3.66.32,5.2.96,1.54.64,2.86,1.55,3.95,2.73,1.09,1.18,1.93,2.6,2.51,4.28.58,1.67.87,3.54.87,5.6s-.29,3.95-.87,5.62c-.58,1.66-1.42,3.09-2.51,4.26-1.09,1.18-2.41,2.08-3.95,2.72-1.54.63-3.28.95-5.2.95s-3.69-.32-5.24-.95-2.87-1.54-3.96-2.72-1.93-2.6-2.51-4.26c-.58-1.66-.87-3.54-.87-5.62s.29-3.93.87-5.6c.58-1.67,1.42-3.1,2.51-4.28s2.41-2.09,3.96-2.73c1.55-.64,3.3-.96,5.24-.96ZM275.22,77.36c2.6,0,4.54-.87,5.82-2.61s1.92-4.17,1.92-7.29-.64-5.58-1.92-7.33c-1.28-1.75-3.22-2.63-5.82-2.63-1.32,0-2.47.23-3.44.68-.98.45-1.79,1.1-2.44,1.95-.65.85-1.14,1.89-1.46,3.13-.32,1.24-.48,2.64-.48,4.2,0,3.12.65,5.55,1.94,7.29,1.29,1.74,3.25,2.61,5.89,2.61Z"/>
      <path class="cls-1" d="M296.82,42.31v38.3h-4.63v-38.3h4.63Z"/>
      <path class="cls-1" d="M307.53,42.31v38.3h-4.63v-38.3h4.63Z"/>
      <path class="cls-1" d="M324.56,53.85c1.92,0,3.66.32,5.2.96,1.54.64,2.86,1.55,3.95,2.73,1.09,1.18,1.93,2.6,2.51,4.28.58,1.67.87,3.54.87,5.6s-.29,3.95-.87,5.62c-.58,1.66-1.42,3.09-2.51,4.26-1.09,1.18-2.41,2.08-3.95,2.72-1.54.63-3.28.95-5.2.95s-3.69-.32-5.24-.95-2.87-1.54-3.96-2.72-1.93-2.6-2.51-4.26c-.58-1.66-.87-3.54-.87-5.62s.29-3.93.87-5.6c.58-1.67,1.42-3.1,2.51-4.28s2.41-2.09,3.96-2.73c1.55-.64,3.3-.96,5.24-.96ZM324.56,77.36c2.6,0,4.54-.87,5.82-2.61s1.92-4.17,1.92-7.29-.64-5.58-1.92-7.33c-1.28-1.75-3.22-2.63-5.82-2.63-1.32,0-2.47.23-3.44.68-.98.45-1.79,1.1-2.44,1.95-.65.85-1.14,1.89-1.46,3.13-.32,1.24-.48,2.64-.48,4.2,0,3.12.65,5.55,1.94,7.29,1.29,1.74,3.25,2.61,5.89,2.61Z"/>
      <path class="cls-1" d="M377.32,54.27l-8.53,26.34h-3.67c-.45,0-.76-.29-.94-.88l-5.82-17.86c-.14-.4-.25-.8-.34-1.21s-.17-.81-.26-1.21c-.09.4-.17.8-.26,1.21s-.2.82-.34,1.24l-5.93,17.84c-.16.59-.5.88-1.04.88h-3.48l-8.53-26.34h3.64c.36,0,.67.1.92.29.25.19.42.42.51.68l5.04,16.95c.29,1.25.53,2.43.7,3.54.16-.57.32-1.15.48-1.74s.34-1.19.53-1.79l5.56-17.06c.09-.26.24-.48.46-.65.22-.17.48-.26.79-.26h2.03c.35,0,.63.09.86.26.22.17.38.39.47.65l5.43,17.06c.19.61.36,1.21.52,1.79.16.59.3,1.17.44,1.74.09-.57.19-1.15.33-1.73.13-.58.27-1.18.43-1.81l5.15-16.95c.09-.28.25-.51.49-.69.24-.18.53-.27.86-.27h3.48Z"/>
      <path class="cls-1" d="M390.97,80.61v-26.34h2.78c.66,0,1.07.32,1.22.96l.34,2.7c.97-1.2,2.06-2.17,3.28-2.94,1.21-.76,2.62-1.14,4.21-1.14,1.77,0,3.2.49,4.3,1.48,1.1.99,1.89,2.32,2.38,4,.38-.95.87-1.78,1.47-2.47.6-.69,1.27-1.26,2.02-1.72.75-.45,1.54-.78,2.38-.99.84-.21,1.69-.31,2.56-.31,1.39,0,2.62.22,3.71.66,1.08.44,2,1.09,2.76,1.94.75.85,1.33,1.89,1.73,3.13.4,1.24.6,2.66.6,4.25v16.77h-4.65v-16.77c0-2.06-.45-3.63-1.35-4.69-.9-1.07-2.2-1.6-3.9-1.6-.76,0-1.49.13-2.17.4-.69.27-1.29.66-1.81,1.18-.52.52-.93,1.17-1.23,1.96s-.46,1.7-.46,2.74v16.77h-4.65v-16.77c0-2.12-.42-3.69-1.27-4.73-.85-1.04-2.09-1.56-3.72-1.56-1.14,0-2.2.31-3.17.92-.97.62-1.86,1.45-2.68,2.51v19.63h-4.65Z"/>
      <path class="cls-1" d="M453.55,76.92c-.57.69-1.26,1.3-2.05,1.81s-1.65.93-2.56,1.26c-.91.33-1.85.58-2.82.74-.97.16-1.93.25-2.89.25-1.82,0-3.5-.31-5.03-.92-1.53-.62-2.86-1.52-3.98-2.7s-1.99-2.66-2.61-4.41c-.62-1.75-.94-3.76-.94-6.03,0-1.84.28-3.55.84-5.15.56-1.59,1.37-2.98,2.43-4.15,1.06-1.17,2.35-2.09,3.87-2.76,1.52-.67,3.24-1,5.15-1,1.58,0,3.04.26,4.38.79,1.34.53,2.5,1.29,3.48,2.29s1.75,2.23,2.3,3.69c.55,1.47.83,3.13.83,5.01,0,.73-.08,1.21-.23,1.46-.16.24-.45.36-.88.36h-17.6c.05,1.66.28,3.11.69,4.34.41,1.23.98,2.26,1.7,3.08.73.82,1.59,1.44,2.6,1.85,1,.41,2.13.61,3.38.61,1.16,0,2.16-.13,3-.4s1.56-.56,2.17-.87c.61-.31,1.11-.6,1.52-.87s.76-.4,1.05-.4c.38,0,.68.15.88.44l1.3,1.69ZM449.8,64.57c0-1.07-.15-2.06-.46-2.95-.3-.89-.75-1.66-1.33-2.31-.58-.65-1.29-1.15-2.12-1.51-.83-.35-1.78-.53-2.83-.53-2.22,0-3.97.65-5.27,1.94-1.29,1.29-2.09,3.08-2.4,5.37h14.4Z"/>
      <path class="cls-1" d="M480.93,53.85c1.92,0,3.66.32,5.2.96,1.54.64,2.86,1.55,3.95,2.73,1.09,1.18,1.93,2.6,2.51,4.28.58,1.67.87,3.54.87,5.6s-.29,3.95-.87,5.62c-.58,1.66-1.42,3.09-2.51,4.26-1.09,1.18-2.41,2.08-3.95,2.72-1.54.63-3.28.95-5.2.95s-3.69-.32-5.24-.95-2.87-1.54-3.96-2.72-1.93-2.6-2.51-4.26c-.58-1.66-.87-3.54-.87-5.62s.29-3.93.87-5.6c.58-1.67,1.42-3.1,2.51-4.28s2.41-2.09,3.96-2.73c1.55-.64,3.3-.96,5.24-.96ZM480.93,77.36c2.6,0,4.54-.87,5.82-2.61s1.92-4.17,1.92-7.29-.64-5.58-1.92-7.33c-1.28-1.75-3.22-2.63-5.82-2.63-1.32,0-2.47.23-3.44.68-.98.45-1.79,1.1-2.44,1.95-.65.85-1.14,1.89-1.46,3.13-.32,1.24-.48,2.64-.48,4.2,0,3.12.65,5.55,1.94,7.29,1.29,1.74,3.25,2.61,5.89,2.61Z"/>
      <path class="cls-1" d="M502.11,58.09c.57-.64,1.18-1.22,1.82-1.74.64-.52,1.32-.97,2.04-1.34.72-.37,1.48-.66,2.29-.86.81-.2,1.68-.3,2.61-.3,1.44,0,2.71.24,3.81.71,1.1.48,2.02,1.15,2.76,2.03s1.3,1.93,1.68,3.16c.38,1.23.57,2.59.57,4.08v16.77h-4.65v-16.77c0-1.99-.46-3.54-1.37-4.64-.91-1.1-2.29-1.65-4.15-1.65-1.37,0-2.65.33-3.83.99-1.19.66-2.28,1.55-3.29,2.68v19.4h-4.65v-26.34h2.78c.66,0,1.07.32,1.22.96l.36,2.86Z"/>
    </g>
  </g>
</svg>