<?xml version="1.0" encoding="UTF-8"?>
<svg id="Layer_2" data-name="Layer 2" xmlns="http://www.w3.org/2000/svg" xmlns:xlink="http://www.w3.org/1999/xlink" viewBox="0 0 623.42 202.86">
  <defs>
    <style>
      .cls-1 {
        fill: #fff;
      }

      .cls-2, .cls-3, .cls-4 {
        fill: none;
      }

      .cls-5 {
        fill: red;
      }

      .cls-3 {
        stroke-width: 3.71px;
      }

      .cls-3, .cls-4 {
        stroke: red;
      }

      .cls-4 {
        stroke-width: 4.95px;
      }

      .cls-6 {
        clip-path: url(#clippath);
      }
    </style>
    <clipPath id="clippath">
      <rect class="cls-2" x="51.95" y="42.64" width="117.56" height="117.56"/>
    </clipPath>
  </defs>
  <g id="Layer_1-2" data-name="Layer 1">
    <rect class="cls-4" x="2.47" y="2.47" width="618.47" height="197.91" rx="49.48" ry="49.48"/>
    <g class="cls-6">
      <g>
        <path class="cls-3" d="M110.73,160.2c32.46,0,58.78-26.31,58.78-58.78s-26.32-58.78-58.78-58.78-58.78,26.32-58.78,58.78,26.32,58.78,58.78,58.78Z"/>
        <path class="cls-5" d="M110.73,73.37c15.43,0,28.05,12.56,28.05,28.05s-12.55,28.06-28.05,28.06-28.05-12.56-28.05-28.06,12.62-28.05,28.05-28.05ZM110.73,70.7c-16.97,0-30.73,13.76-30.73,30.72s13.76,30.73,30.73,30.73,30.72-13.76,30.72-30.73-13.76-30.72-30.72-30.72Z"/>
        <path class="cls-5" d="M100.04,116.78l26.05-16.03-26.05-14.69v30.72Z"/>
      </g>
    </g>
    <path class="cls-1" d="M207.67,88.42v-36.39h4.54v32.31h17.56v4.08h-22.1ZM235,57.75c-1.51,0-2.75-1.23-2.75-2.75s1.24-2.75,2.75-2.75,2.75,1.21,2.75,2.75-1.21,2.75-2.75,2.75ZM232.81,88.42v-26.23h4.39v26.23h-4.39ZM250.93,88.93c-6.18,0-9.91-3.16-10.44-7.85l-.02-.22h4.38l.05.25c.53,2.62,2.48,4.16,6.06,4.16s5.67-1.49,5.67-3.86v-.02c0-1.9-.98-2.96-3.96-3.69l-4.16-1.01c-4.94-1.18-7.34-3.48-7.34-7.26v-.03c0-4.51,3.96-7.71,9.64-7.71s9.4,3.35,9.73,7.74l.03.33h-4.19l-.02-.18c-.36-2.55-2.3-4.24-5.55-4.24s-5.15,1.54-5.15,3.86v.03c0,1.79,1.19,3.02,4.09,3.73l4.16,1.01c5.3,1.29,7.21,3.38,7.21,7.11v.03c0,4.59-4.34,7.82-10.19,7.82ZM272.66,88.93c-4.81,0-7.19-2.17-7.19-7.19v-15.92h-3.83v-3.63h3.83v-7.09h4.54v7.09h5v3.63h-5v15.89c0,2.8,1.24,3.58,3.59,3.58.53,0,1.03-.07,1.41-.1v3.56c-.56.08-1.49.18-2.35.18ZM288.21,88.93c-7.54,0-12.08-5.27-12.08-13.52v-.03c0-8.12,4.64-13.69,11.81-13.69s11.52,5.32,11.52,13.19v1.61h-18.89c.1,5.4,3.08,8.55,7.75,8.55,3.32,0,5.67-1.66,6.43-3.91l.07-.22h4.32l-.06.25c-.85,4.34-5.14,7.77-10.87,7.77ZM287.91,65.57c-3.81,0-6.78,2.6-7.26,7.49h14.35c-.43-5.09-3.25-7.49-7.09-7.49ZM302.35,88.42v-26.23h4.39v3.73h.1c1.41-2.44,4.09-4.23,8.07-4.23,5.75,0,9.08,3.73,9.08,9.71v17.02h-4.39v-16.24c0-4.26-1.99-6.61-6.02-6.61s-6.84,2.95-6.84,7.42v15.43h-4.39ZM347.96,88.93c-7.29,0-12.16-5.27-12.16-13.62v-.05c0-8.35,4.89-13.57,12.13-13.57s12.16,5.19,12.16,13.57v.05c0,8.37-4.89,13.62-12.13,13.62ZM347.98,85.04c4.62,0,7.62-3.58,7.62-9.73v-.05c0-6.16-3.03-9.69-7.67-9.69s-7.64,3.56-7.64,9.69v.05c0,6.18,3.05,9.73,7.69,9.73ZM362.98,88.42v-26.23h4.39v3.73h.1c1.41-2.44,4.08-4.23,8.07-4.23,5.75,0,9.08,3.73,9.08,9.71v17.02h-4.39v-16.24c0-4.26-1.99-6.61-6.03-6.61s-6.83,2.95-6.83,7.42v15.43h-4.39Z"/>
    <path class="cls-5" d="M220.75,124.77l9-17.16h8.52l-13.53,25.25v20.84h-7.79v-20.84l-13.47-25.25h8.39l8.88,17.16ZM254.88,137.21c0-1.57-.18-3.08-.55-4.53-.36-1.49-.86-2.72-1.51-3.69-.64-.96-1.39-1.65-2.23-2.05-.85-.44-1.65-.66-2.42-.66s-1.57.22-2.41.66c-.85.4-1.61,1.09-2.3,2.05-.6.97-1.09,2.2-1.45,3.69-.36,1.45-.54,2.96-.54,4.53s.18,3.02.54,4.47c.36,1.41.85,2.62,1.45,3.62.69.97,1.45,1.65,2.3,2.06.84.4,1.65.6,2.41.6s1.57-.2,2.42-.6c.84-.41,1.59-1.09,2.23-2.06.65-1,1.15-2.21,1.51-3.62.37-1.45.55-2.94.55-4.47ZM262.79,137.21c0,2.29-.34,4.53-1.03,6.7-.64,2.14-1.59,3.99-2.84,5.56-1.33,1.61-2.94,2.84-4.83,3.68-1.89.85-3.86,1.27-5.92,1.27s-4.02-.42-5.92-1.27c-1.89-.84-3.5-2.07-4.83-3.68-1.25-1.57-2.21-3.42-2.9-5.56-.64-2.17-.96-4.41-.96-6.7s.32-4.57.96-6.71c.69-2.17,1.65-4.04,2.9-5.61,1.33-1.65,2.94-2.9,4.83-3.75,1.9-.88,3.87-1.33,5.92-1.33s4.03.45,5.92,1.33c1.89.85,3.5,2.1,4.83,3.75,1.25,1.57,2.2,3.44,2.84,5.61.69,2.14,1.03,4.37,1.03,6.71ZM266.05,120.54h7.67v20.59c0,2.26.44,4.05,1.33,5.38.6.77,1.59,1.15,2.96,1.15,1.17,0,2.33-.67,3.5-2,1.17-1.32,2.04-3.38,2.6-6.16.16-.72.26-1.41.3-2.05.08-.68.12-1.47.12-2.36v-14.55h7.61v33.16h-7.61v-2.66c-.52.81-1.45,1.59-2.78,2.36-1.28.72-2.63,1.08-4.04,1.08-3.71,0-6.57-1-8.58-3.02-2.05-2.05-3.08-5.01-3.08-8.88v-22.04ZM326.93,114.62h-12.08v39.08h-7.79v-39.08h-12.08v-7.01h31.95v7.01ZM324.94,120.54h7.67v20.59c0,2.26.44,4.05,1.33,5.38.6.77,1.59,1.15,2.96,1.15,1.16,0,2.33-.67,3.5-2,1.17-1.32,2.03-3.38,2.6-6.16.16-.72.26-1.41.3-2.05.08-.68.12-1.47.12-2.36v-14.55h7.61v33.16h-7.61v-2.66c-.52.81-1.45,1.59-2.78,2.36-1.29.72-2.64,1.08-4.04,1.08-3.71,0-6.57-1-8.58-3.02-2.05-2.05-3.08-5.01-3.08-8.88v-22.04ZM375.73,137.21c0-1.57-.18-3.08-.54-4.53-.32-1.45-.79-2.66-1.39-3.62-.56-.97-1.25-1.66-2.05-2.06-.77-.4-1.49-.6-2.18-.6-.6,0-1.29.26-2.05.78-.77.49-1.41,1.17-1.93,2.06-.69,1.04-1.21,2.25-1.57,3.62-.33,1.33-.49,2.78-.49,4.35s.16,3.02.49,4.47c.36,1.41.84,2.62,1.45,3.62.56.97,1.22,1.65,1.99,2.06.76.36,1.47.54,2.11.54.69,0,1.41-.18,2.18-.54.8-.41,1.49-1.09,2.05-2.06.56-1,1.03-2.21,1.39-3.62.36-1.45.54-2.94.54-4.47ZM369.63,154.42c-2.25,0-4.25-.38-5.98-1.15-1.73-.8-3.18-1.99-4.35-3.56-1.04-1.45-1.89-3.28-2.53-5.5-.61-2.21-.91-4.65-.91-7.3v-29.3h7.61v15.16c1.73-1.97,3.87-2.96,6.4-2.96,2.3,0,4.35.51,6.16,1.51,1.86.97,3.33,2.26,4.41,3.87,1.09,1.53,1.88,3.34,2.36,5.44.48,2.05.72,4.14.72,6.28,0,2.65-.32,5.09-.96,7.3-.61,2.22-1.45,4.05-2.54,5.5-1.13,1.57-2.58,2.76-4.35,3.56-1.77.77-3.78,1.15-6.04,1.15ZM393.25,133.46h11.53c0-1.89-.34-3.5-1.02-4.83-.41-.68-.97-1.23-1.69-1.63-.69-.44-1.45-.66-2.3-.66-1.73,0-3.28.86-4.65,2.59-.93,1.17-1.55,2.68-1.87,4.53ZM393.43,139.99c.12.56.28,1.14.48,1.75.32.92.83,1.85,1.51,2.78.73.92,1.61,1.73,2.66,2.41.36.2.91.41,1.63.61.73.2,1.61.3,2.66.3,1.21,0,2.57-.2,4.11-.61,1.53-.44,3.24-1.22,5.13-2.35v6.76c-2.22,1.29-4.33,2.14-6.34,2.54-2.02.36-4.05.44-6.1.24-1.77-.24-3.55-.78-5.32-1.63-1.73-.88-3.14-1.91-4.23-3.08-1.24-1.49-2.29-3.34-3.14-5.56-.84-2.21-1.26-4.75-1.26-7.61,0-2.41.3-4.61.9-6.58.65-2.01,1.57-3.74,2.78-5.19,1.17-1.45,2.66-2.64,4.47-3.57,1.85-.92,4.01-1.39,6.46-1.39,2.05,0,3.97.45,5.74,1.33,1.77.89,3.16,2.02,4.17,3.39,1.81,2.37,2.71,6.3,2.71,11.77v3.69h-19.02ZM474.54,153.7h-7.3v-29.6l-9.61,29.6h-5.92l-9.54-29.6v29.6h-7.37v-46.09h9l10.93,33.95,10.81-33.95h9v46.09ZM479.74,120.54h7.67v20.59c0,2.26.44,4.05,1.33,5.38.6.77,1.59,1.15,2.96,1.15,1.16,0,2.33-.67,3.5-2,1.17-1.32,2.03-3.38,2.6-6.16.16-.72.26-1.41.3-2.05.08-.68.12-1.47.12-2.36v-14.55h7.61v33.16h-7.61v-2.66c-.52.81-1.45,1.59-2.78,2.36-1.29.72-2.64,1.08-4.05,1.08-3.7,0-6.56-1-8.57-3.02-2.06-2.05-3.08-5.01-3.08-8.88v-22.04ZM532.1,144.46c0,1.45-.26,2.8-.78,4.04-.49,1.25-1.23,2.3-2.24,3.14-1.08.89-2.55,1.57-4.41,2.06-1.81.48-3.76.72-5.86.72-2.41,0-5.69-.64-9.84-1.93v-7.97c1.89,1.12,3.72,1.97,5.5,2.53,1.81.53,3.26.79,4.34.79,1.86,0,3.19-.18,3.99-.54,1.09-.69,1.63-1.53,1.63-2.54,0-.73-.2-1.33-.6-1.81-.36-.53-.95-1.01-1.75-1.45-.77-.45-1.9-.95-3.39-1.51-1.45-.61-2.9-1.27-4.34-2-1.25-.64-2.44-1.65-3.57-3.02-1.13-1.36-1.69-3.16-1.69-5.37,0-3.1,1.09-5.5,3.26-7.19,2.22-1.73,5.04-2.6,8.46-2.6,2.9,0,6.1.61,9.6,1.82v7.55c-2.17-1.13-3.99-1.9-5.43-2.3-1.45-.4-2.88-.6-4.29-.6-1.21,0-2.2.24-2.96.72-.73.48-1.09,1.19-1.09,2.12,0,.6.12,1.1.36,1.51.28.4.73.82,1.33,1.26.69.41,1.87.95,3.56,1.63,1.7.69,3.21,1.35,4.53,2,1.49.8,2.8,1.93,3.93,3.38,1.17,1.41,1.75,3.26,1.75,5.56ZM543.4,116.43h-8.64v-8.82h8.64v8.82ZM543.03,153.7h-7.79v-33.16h7.79v33.16ZM573.78,132.8h-7.98c0-2.17-.4-3.79-1.2-4.83-.81-1.09-1.98-1.63-3.51-1.63-1.73,0-3.28.88-4.65,2.65-1.33,1.74-1.99,4.27-1.99,7.61,0,.77.08,1.6.24,2.48.16.89.38,1.75.67,2.6.32,1,.8,1.97,1.44,2.9.69.92,1.55,1.71,2.6,2.35.36.2.91.41,1.63.61.73.2,1.61.3,2.66.3.68,0,1.79-.14,3.32-.42,1.53-.33,3.5-1.15,5.92-2.48v6.7c-2.21,1.29-4.33,2.14-6.34,2.54-2.01.36-4.05.44-6.1.24-1.77-.24-3.54-.78-5.32-1.63-1.73-.88-3.14-1.91-4.22-3.08-1.25-1.49-2.3-3.34-3.14-5.56-.85-2.21-1.27-4.75-1.27-7.61,0-2.41.3-4.61.9-6.58.65-2.01,1.57-3.74,2.78-5.19,1.17-1.49,2.7-2.68,4.59-3.57,1.89-.92,4.05-1.39,6.46-1.39,1.78,0,3.41.31,4.9.91,1.49.56,2.77,1.33,3.86,2.3,1.13.96,2.04,2.17,2.72,3.62.68,1.41,1.03,3.46,1.03,6.16Z"/>
  </g>
</svg>