<?xml version="1.0" encoding="UTF-8"?>
<svg id="Layer_2" data-name="Layer 2" xmlns="http://www.w3.org/2000/svg" viewBox="0 0 655.58 202.86">
  <defs>
    <style>
      .cls-1 {
        fill: #fff;
      }

      .cls-2 {
        stroke-width: 4.95px;
      }

      .cls-2, .cls-3 {
        fill: none;
        stroke: #1ed760;
      }

      .cls-3 {
        stroke-width: 5px;
      }

      .cls-3, .cls-4 {
        fill-rule: evenodd;
      }

      .cls-4, .cls-5 {
        fill: #1ed760;
      }
    </style>
  </defs>
  <g id="Layer_1-2" data-name="Layer 1">
    <rect class="cls-2" x="2.47" y="2.47" width="650.63" height="197.91" rx="49.48" ry="49.48"/>
    <path class="cls-3" d="M124.83,28.55c-40.26,0-72.89,32.63-72.89,72.88s32.63,72.89,72.89,72.89,72.88-32.63,72.88-72.89S165.08,28.55,124.83,28.55h0Z"/>
    <path class="cls-4" d="M167.94,93.15c-23.5-13.95-62.25-15.23-84.67-8.42-3.6,1.09-7.41-.94-8.5-4.55-1.1-3.6.94-7.4,4.54-8.5,25.74-7.82,68.54-6.31,95.58,9.75,3.24,1.92,4.31,6.11,2.39,9.34-1.93,3.24-6.11,4.31-9.34,2.38ZM167.17,113.82c-1.65,2.67-5.15,3.51-7.82,1.87-19.58-12.04-49.45-15.53-72.62-8.49-3.01.9-6.18-.79-7.09-3.79-.91-3,.79-6.17,3.79-7.09,26.47-8.03,59.37-4.14,81.87,9.69,2.67,1.64,3.51,5.14,1.87,7.81ZM158.25,133.66c-1.31,2.15-4.11,2.82-6.25,1.52-17.11-10.46-38.65-12.83-64.02-7.03-2.45.56-4.88-.97-5.44-3.42-.56-2.44.97-4.88,3.42-5.44,27.76-6.34,51.57-3.61,70.78,8.13,2.14,1.3,2.82,4.1,1.51,6.24Z"/>
    <path class="cls-1" d="M235.87,78.61v-36.4h4.54v32.31h17.56v4.09h-22.1ZM263.2,47.94c-1.51,0-2.75-1.24-2.75-2.75s1.24-2.75,2.75-2.75,2.75,1.21,2.75,2.75-1.21,2.75-2.75,2.75ZM261.01,78.61v-26.23h4.38v26.23h-4.38ZM279.13,79.12c-6.18,0-9.91-3.15-10.44-7.84l-.03-.23h4.39l.05.25c.53,2.62,2.47,4.16,6.05,4.16s5.68-1.49,5.68-3.86v-.03c0-1.89-.98-2.95-3.96-3.68l-4.16-1.01c-4.95-1.18-7.34-3.48-7.34-7.26v-.03c0-4.51,3.96-7.72,9.63-7.72s9.41,3.35,9.74,7.74l.02.33h-4.18l-.03-.18c-.35-2.55-2.29-4.24-5.55-4.24s-5.14,1.54-5.14,3.86v.02c0,1.79,1.18,3.03,4.08,3.73l4.17,1.01c5.29,1.29,7.21,3.38,7.21,7.11v.02c0,4.59-4.34,7.82-10.19,7.82ZM300.86,79.12c-4.82,0-7.19-2.17-7.19-7.19v-15.92h-3.83v-3.63h3.83v-7.09h4.54v7.09h5v3.63h-5v15.89c0,2.8,1.24,3.58,3.58,3.58.53,0,1.04-.08,1.42-.1v3.56c-.56.08-1.49.18-2.35.18ZM316.41,79.12c-7.54,0-12.08-5.27-12.08-13.52v-.03c0-8.12,4.64-13.7,11.8-13.7s11.53,5.32,11.53,13.19v1.61h-18.89c.1,5.4,3.08,8.55,7.74,8.55,3.33,0,5.68-1.66,6.43-3.91l.08-.23h4.31l-.05.25c-.86,4.34-5.14,7.77-10.87,7.77ZM316.11,55.76c-3.81,0-6.79,2.6-7.27,7.49h14.36c-.43-5.1-3.26-7.49-7.09-7.49ZM330.55,78.61v-26.23h4.39v3.73h.1c1.41-2.45,4.08-4.24,8.07-4.24,5.75,0,9.08,3.73,9.08,9.71v17.02h-4.39v-16.24c0-4.26-1.99-6.61-6.03-6.61s-6.83,2.95-6.83,7.42v15.43h-4.39ZM376.15,79.12c-7.29,0-12.15-5.27-12.15-13.62v-.05c0-8.35,4.89-13.57,12.13-13.57s12.16,5.2,12.16,13.57v.05c0,8.37-4.9,13.62-12.14,13.62ZM376.18,75.23c4.61,0,7.62-3.58,7.62-9.74v-.05c0-6.16-3.03-9.69-7.67-9.69s-7.64,3.56-7.64,9.69v.05c0,6.18,3.05,9.74,7.69,9.74ZM391.17,78.61v-26.23h4.39v3.73h.1c1.42-2.45,4.09-4.24,8.08-4.24,5.75,0,9.08,3.73,9.08,9.71v17.02h-4.39v-16.24c0-4.26-2-6.61-6.03-6.61s-6.84,2.95-6.84,7.42v15.43h-4.39Z"/>
    <path class="cls-5" d="M257.35,155.21c-13.26,0-21.8-6.07-22.46-16.35l-.04-.62h11.02l.08.42c.73,4.33,5.33,7.04,11.71,7.04s10.51-2.82,10.51-7.08v-.03c0-3.79-2.74-5.69-9.66-7.12l-5.88-1.16c-11.01-2.2-16.58-7.46-16.58-15.84v-.04c0-10.21,8.89-16.93,21.26-16.93s20.84,6.45,21.38,16.23l.03.74h-11.01l-.04-.47c-.58-4.37-4.6-7.03-10.36-7.03-5.99.04-9.59,2.78-9.59,6.76v.04c0,3.52,2.86,5.57,9.28,6.84l5.92,1.2c11.67,2.32,16.93,7.07,16.93,15.85v.04c0,10.7-8.43,17.51-22.5,17.51ZM286.03,167.77v-54.97h11.29v7.23h.27c2.24-5.02,6.76-8.08,12.64-8.08,10.51,0,16.93,8.04,16.93,21.53v.04c0,13.45-6.42,21.57-16.78,21.57-5.91,0-10.59-3.01-12.83-7.92h-.23v20.6h-11.29ZM306.52,145.74c5.6,0,9.16-4.68,9.16-12.22v-.04c0-7.57-3.56-12.17-9.16-12.17s-9.24,4.71-9.24,12.21v.04c0,7.46,3.75,12.18,9.24,12.18ZM352.05,155.09c-12.6,0-20.52-8.08-20.52-21.57v-.07c0-13.34,8.11-21.5,20.48-21.5s20.57,8.08,20.57,21.5v.07c0,13.53-8,21.57-20.53,21.57ZM352.09,146.24c5.49,0,9.01-4.64,9.01-12.72v-.07c0-8.01-3.6-12.64-9.09-12.64s-9,4.63-9,12.64v.07c0,8.12,3.51,12.72,9.08,12.72ZM394.88,155.09c-9.2,0-13.53-3.55-13.53-12.45v-21.33h-5.76v-8.51h5.76v-10.12h11.41v10.12h7.57v8.51h-7.57v20.1c0,3.86,1.74,5.18,5.14,5.18,1,0,1.74-.12,2.43-.2v8.28c-1.27.19-3.09.42-5.45.42ZM412.43,107.47c-3.4,0-6.03-2.67-6.03-5.88s2.63-5.87,6.03-5.87,6.03,2.67,6.03,5.87-2.63,5.88-6.03,5.88ZM406.79,154.24v-41.44h11.28v41.44h-11.28ZM428.67,154.24v-32.93h-5.65v-8.51h5.65v-3.32c0-8.12,3.86-11.87,13.64-11.87,2.09,0,4.37.2,5.68.47v7.46c-.77-.16-1.85-.2-2.9-.2-3.75,0-5.41,1.59-5.41,4.56v2.9h8.24v8.51h-7.97v32.93h-11.28ZM460.36,167.89c-2.2,0-4.44-.27-5.76-.51v-8.38c.81.15,2.13.38,3.79.38,3.36,0,5.22-.96,6.22-3.79l.51-1.35-14.65-41.44h12.4l8.74,32.4h.31l8.77-32.4h11.91l-14.22,42.18c-3.25,9.78-8.82,12.91-18.02,12.91Z"/>
  </g>
</svg>