<?xml version="1.0" encoding="UTF-8"?>
<svg id="Layer_2" data-name="Layer 2" xmlns="http://www.w3.org/2000/svg" xmlns:xlink="http://www.w3.org/1999/xlink" viewBox="0 0 623.42 202.86">
  <defs>
    <style>
      .cls-1 {
        fill: none;
        stroke: url(#linear-gradient);
        stroke-width: 4.95px;
      }

      .cls-2 {
        fill: #fff;
      }

      .cls-3 {
        fill: url(#linear-gradient-3);
      }

      .cls-4 {
        fill: url(#linear-gradient-2);
        fill-rule: evenodd;
      }
    </style>
    <linearGradient id="linear-gradient" x1="1278.71" y1="7664.06" x2="1278.71" y2="7856.94" gradientTransform="translate(-967 7863.68) scale(1 -1)" gradientUnits="userSpaceOnUse">
      <stop offset="0" stop-color="#fa233b"/>
      <stop offset="1" stop-color="#fb5c74"/>
    </linearGradient>
    <linearGradient id="linear-gradient-2" x1="1082.44" y1="7717.13" x2="1082.44" y2="7807.69" xlink:href="#linear-gradient"/>
    <linearGradient id="linear-gradient-3" x1="1365.42" y1="7692.26" x2="1365.42" y2="7767.3" xlink:href="#linear-gradient"/>
  </defs>
  <g id="Layer_1-2" data-name="Layer 1">
    <rect class="cls-1" x="2.47" y="2.47" width="618.47" height="197.91" rx="49.48" ry="49.48"/>
    <path class="cls-4" d="M148.5,54.01c-.33.03-3.26.55-3.61.62l-40.6,8.19h-.01c-1.06.23-1.89.6-2.53,1.14-.78.65-1.21,1.57-1.37,2.64-.03.23-.09.69-.09,1.37v50.81c0,1.19-.1,2.34-.9,3.32-.8.98-1.8,1.28-2.96,1.51-.89.18-1.77.36-2.65.53-3.36.68-5.54,1.14-7.52,1.9-1.89.73-3.3,1.67-4.43,2.85-2.23,2.34-3.14,5.52-2.83,8.49.27,2.54,1.41,4.97,3.37,6.76,1.32,1.21,2.98,2.14,4.93,2.53,2.02.41,4.18.27,7.33-.37,1.67-.34,3.24-.86,4.74-1.75,1.48-.87,2.74-2.04,3.73-3.46,1-1.42,1.64-3.01,1.99-4.69.37-1.73.45-3.3.45-5.03v-44.07c0-2.36.67-2.98,2.58-3.45,0,0,33.74-6.81,35.31-7.11,2.2-.42,3.24.2,3.24,2.51v30.08c0,1.19-.01,2.4-.83,3.38-.8.98-1.79,1.28-2.96,1.51-.88.18-1.77.36-2.65.54-3.36.68-5.54,1.13-7.51,1.9-1.89.73-3.31,1.67-4.43,2.85-2.24,2.34-3.23,5.52-2.91,8.49.26,2.54,1.48,4.97,3.44,6.76,1.33,1.21,2.98,2.11,4.93,2.5,2.02.41,4.18.26,7.33-.37,1.68-.34,3.25-.84,4.74-1.73,1.48-.87,2.75-2.04,3.74-3.46.99-1.42,1.63-3.01,1.99-4.69.36-1.73.38-3.3.38-5.03V57.59c0-2.34-1.23-3.78-3.43-3.59Z"/>
    <path class="cls-2" d="M227.22,88.14v-41.83h5.22v37.14h20.18v4.7h-25.4ZM258.64,52.89c-1.74,0-3.16-1.42-3.16-3.16s1.42-3.16,3.16-3.16,3.16,1.39,3.16,3.16-1.4,3.16-3.16,3.16ZM256.11,88.14v-30.15h5.05v30.15h-5.05ZM276.95,88.72c-7.11,0-11.4-3.62-12.01-9.02l-.03-.26h5.05l.06.29c.61,3.01,2.84,4.78,6.95,4.78s6.53-1.71,6.53-4.44v-.03c0-2.17-1.13-3.39-4.55-4.23l-4.79-1.16c-5.68-1.36-8.43-4-8.43-8.35v-.03c0-5.19,4.55-8.87,11.07-8.87s10.81,3.86,11.19,8.9l.03.38h-4.81l-.03-.2c-.41-2.93-2.64-4.87-6.38-4.87s-5.91,1.77-5.91,4.44v.03c0,2.06,1.36,3.48,4.69,4.29l4.79,1.16c6.08,1.48,8.29,3.89,8.29,8.18v.03c0,5.28-4.99,8.99-11.71,8.99ZM301.92,88.72c-5.53,0-8.26-2.49-8.26-8.26v-18.29h-4.41v-4.18h4.41v-8.15h5.22v8.15h5.74v4.18h-5.74v18.26c0,3.22,1.42,4.12,4.12,4.12.6,0,1.18-.09,1.62-.12v4.09c-.64.09-1.71.2-2.7.2ZM319.8,88.72c-8.67,0-13.89-6.06-13.89-15.54v-.03c0-9.34,5.34-15.74,13.57-15.74s13.25,6.12,13.25,15.16v1.86h-21.72c.12,6.2,3.54,9.83,8.9,9.83,3.83,0,6.53-1.91,7.4-4.49l.08-.26h4.96l-.06.29c-.98,4.99-5.91,8.93-12.49,8.93ZM319.45,61.87c-4.38,0-7.8,2.99-8.35,8.61h16.5c-.5-5.86-3.74-8.61-8.15-8.61ZM336.05,88.14v-30.15h5.04v4.29h.12c1.62-2.81,4.7-4.87,9.28-4.87,6.61,0,10.43,4.29,10.43,11.16v19.57h-5.04v-18.67c0-4.9-2.29-7.6-6.93-7.6s-7.86,3.39-7.86,8.52v17.74h-5.04ZM388.47,88.72c-8.38,0-13.98-6.06-13.98-15.65v-.06c0-9.6,5.63-15.6,13.95-15.6s13.97,5.97,13.97,15.6v.06c0,9.62-5.62,15.65-13.94,15.65ZM388.5,84.25c5.3,0,8.75-4.12,8.75-11.19v-.06c0-7.07-3.48-11.13-8.81-11.13s-8.79,4.09-8.79,11.13v.06c0,7.1,3.51,11.19,8.85,11.19ZM405.73,88.14v-30.15h5.05v4.29h.11c1.63-2.81,4.7-4.87,9.28-4.87,6.61,0,10.44,4.29,10.44,11.16v19.57h-5.05v-18.67c0-4.9-2.29-7.6-6.93-7.6s-7.85,3.39-7.85,8.52v17.74h-5.05Z"/>
    <path class="cls-3" d="M224.01,155.72l16.21-45.32h9.11l16.2,45.32h-8.51l-3.83-11.72h-16.87l-3.83,11.72h-8.48ZM244.68,118.47l-6.32,19.28h12.79l-6.28-19.28h-.19ZM269.58,166.71v-44.28h7.82v5.75h.16c1.92-3.99,5.56-6.44,10.33-6.44,8.45,0,13.79,6.6,13.79,17.34v.03c0,10.68-5.34,17.27-13.69,17.27-4.74,0-8.55-2.39-10.43-6.28h-.16v16.61h-7.82ZM285.57,149.78c4.99,0,8.13-4.11,8.13-10.68v-.03c0-6.66-3.14-10.74-8.13-10.74s-8.23,4.21-8.23,10.74v.03c0,6.5,3.39,10.68,8.23,10.68ZM306.71,166.71v-44.28h7.82v5.75h.15c1.92-3.99,5.56-6.44,10.34-6.44,8.44,0,13.78,6.6,13.78,17.34v.03c0,10.68-5.34,17.27-13.69,17.27-4.74,0-8.54-2.39-10.43-6.28h-.15v16.61h-7.82ZM322.69,149.78c5,0,8.14-4.11,8.14-10.68v-.03c0-6.66-3.14-10.74-8.14-10.74s-8.23,4.21-8.23,10.74v.03c0,6.5,3.4,10.68,8.23,10.68ZM344.05,155.72v-45.32h7.82v45.32h-7.82ZM373.16,156.38c-9.98,0-16.01-6.63-16.01-17.21v-.03c0-10.49,6.12-17.4,15.64-17.4s15.42,6.69,15.42,16.74v2.51h-23.31c.13,5.84,3.33,9.3,8.42,9.3,3.89,0,6.44-2.07,7.19-4.3l.06-.22h7.32l-.09.35c-1.04,5.12-5.94,10.27-14.64,10.27ZM372.88,127.86c-4.15,0-7.25,2.8-7.88,7.92h15.61c-.57-5.28-3.58-7.92-7.73-7.92ZM406.92,155.72v-45.32h9.36l13.89,34.61h.22l13.88-34.61h9.36v45.32h-7.29v-32.22h-.25l-13.07,32.22h-5.49l-13.07-32.22h-.22v32.22h-7.32ZM472.19,156.38c-7.32,0-11.5-4.71-11.5-12.44v-21.51h7.82v19.97c0,4.71,2.2,7.38,6.66,7.38s7.35-3.23,7.35-8.07v-19.28h7.82v33.29h-7.82v-5.21h-.16c-1.72,3.55-5.15,5.87-10.17,5.87ZM509.78,156.38c-8.73,0-13.72-4.15-14.41-10.33l-.04-.28h7.7l.06.28c.6,2.86,2.77,4.55,6.72,4.55s6.1-1.54,6.1-3.99v-.03c0-2.01-1.17-3.14-4.62-3.93l-5.53-1.23c-6.37-1.41-9.58-4.52-9.58-9.45v-.03c0-6.09,5.31-10.21,13.35-10.21s13.13,4.55,13.41,10.3l.03.35h-7.28l-.03-.25c-.35-2.67-2.49-4.62-6.13-4.62-3.45,0-5.62,1.6-5.62,4.05v.03c0,1.92,1.29,3.17,4.74,3.96l5.56,1.23c6.88,1.54,9.55,4.24,9.55,9.08v.03c0,6.28-5.81,10.49-13.98,10.49ZM532.9,117.65c-2.45,0-4.37-1.95-4.37-4.27s1.92-4.3,4.37-4.3,4.33,1.92,4.33,4.3-1.88,4.27-4.33,4.27ZM528.97,155.72v-33.29h7.82v33.29h-7.82ZM558.15,156.38c-9.89,0-16.08-6.66-16.08-17.34v-.03c0-10.62,6.28-17.27,15.98-17.27,8.77,0,14.23,5.56,14.7,12.22l.03.25h-7.38l-.06-.28c-.66-3.24-3.05-5.84-7.19-5.84-4.93,0-8.1,4.18-8.1,10.99v.03c0,6.94,3.2,10.96,8.13,10.96,3.96,0,6.47-2.36,7.19-5.84l.06-.28h7.39l-.04.22c-.59,6.94-6.21,12.22-14.63,12.22Z"/>
  </g>
</svg>