<?xml version="1.0" encoding="UTF-8"?>
<svg id="Layer_2" data-name="Layer 2" xmlns="http://www.w3.org/2000/svg" xmlns:xlink="http://www.w3.org/1999/xlink" viewBox="0 0 658.05 202.86">
  <defs>
    <style>
      .cls-1 {
        fill: url(#linear-gradient-10);
        fill-rule: evenodd;
      }

      .cls-2 {
        fill: url(#linear-gradient-2);
      }

      .cls-3 {
        fill: none;
        stroke: url(#linear-gradient);
        stroke-width: 4.95px;
      }

      .cls-4 {
        fill: #fff;
      }

      .cls-5 {
        fill: url(#linear-gradient-4);
      }

      .cls-6 {
        fill: url(#linear-gradient-3);
      }

      .cls-7 {
        fill: url(#linear-gradient-5);
      }

      .cls-8 {
        fill: url(#linear-gradient-8);
      }

      .cls-9 {
        fill: url(#linear-gradient-7);
      }

      .cls-10 {
        fill: url(#linear-gradient-9);
      }

      .cls-11 {
        fill: url(#linear-gradient-6);
      }
    </style>
    <linearGradient id="linear-gradient" x1="1140.46" y1="4801.36" x2="1374.93" y2="5929.48" gradientTransform="translate(-967 5651.29) scale(1 -1)" gradientUnits="userSpaceOnUse">
      <stop offset="0" stop-color="#0c6cb3"/>
      <stop offset=".29" stop-color="#1e84c4"/>
      <stop offset=".89" stop-color="#4cc0ef"/>
      <stop offset="1" stop-color="#4cc0ef"/>
    </linearGradient>
    <linearGradient id="linear-gradient-2" x1="1054.6" y1="5517.34" x2="1120.19" y2="5582.93" xlink:href="#linear-gradient"/>
    <linearGradient id="linear-gradient-3" x1="1036.29" y1="5510.85" x2="1098.72" y2="5586.12" xlink:href="#linear-gradient"/>
    <linearGradient id="linear-gradient-4" x1="1015.53" y1="5492.31" x2="1065.46" y2="5596.01" xlink:href="#linear-gradient"/>
    <linearGradient id="linear-gradient-5" x1="1065.62" y1="5449.13" x2="1084.6" y2="5571.87" xlink:href="#linear-gradient"/>
    <linearGradient id="linear-gradient-6" x1="1083.37" y1="5515.75" x2="1147.9" y2="5582.31" xlink:href="#linear-gradient"/>
    <linearGradient id="linear-gradient-7" x1="1089.58" y1="5482.84" x2="1141.78" y2="5560.43" xlink:href="#linear-gradient"/>
    <linearGradient id="linear-gradient-8" x1="1089.62" y1="5554.85" x2="1122.05" y2="5564.04" xlink:href="#linear-gradient"/>
    <linearGradient id="linear-gradient-9" x1="1102.32" y1="5564.07" x2="1115.53" y2="5584.26" xlink:href="#linear-gradient"/>
    <linearGradient id="linear-gradient-10" x1="1331" y1="5245.32" x2="1386" y2="5659.46" xlink:href="#linear-gradient"/>
  </defs>
  <g id="Layer_1-2" data-name="Layer 1">
    <rect class="cls-3" x="2.47" y="2.47" width="653.11" height="197.91" rx="49.48" ry="49.48"/>
    <path class="cls-2" d="M133.68,97.38c-.69.47-1.73.81-3,.81-1.96,0-3.81-.23-5.66-.81-.46-.11-.81-.23-1.04-.23-.35,0-.46.23-.46.7v1.15c0,.35.11.58.23.81.11.11.35.35.69.46,1.85.81,3.93,1.16,6.24,1.16s4.27-.58,5.77-1.74c1.5-1.15,2.2-2.65,2.2-4.62,0-1.38-.35-2.42-1.04-3.35-.69-.8-1.85-1.61-3.47-2.19l-3.23-1.27c-1.27-.46-2.19-.92-2.54-1.39-.46-.46-.69-.92-.69-1.73,0-1.73,1.27-2.65,3.92-2.65,1.5,0,3.01.23,4.39.69.46.11.81.23.93.23.34,0,.57-.23.57-.69v-1.16c0-.34-.11-.58-.23-.81-.11-.23-.34-.34-.69-.46-1.73-.58-3.47-.92-5.2-.92-2.19,0-4.04.57-5.43,1.61-1.38,1.04-2.08,2.55-2.08,4.28,0,2.65,1.51,4.62,4.51,5.77l3.46,1.27c1.16.46,1.85.81,2.31,1.27.47.46.58.93.58,1.62,0,.92-.35,1.73-1.04,2.19Z"/>
    <path class="cls-6" d="M115.55,80.75v15.36c-1.96,1.27-3.93,1.97-5.89,1.97-1.27,0-2.19-.35-2.77-1.04-.58-.7-.81-1.74-.81-3.24v-13.05c0-.57-.23-.81-.81-.81h-2.42c-.58,0-.81.24-.81.81v14.32c0,1.97.46,3.58,1.5,4.62,1.04,1.04,2.54,1.62,4.5,1.62,2.66,0,5.32-.92,7.86-2.77l.23,1.38c0,.35.11.47.34.58.12.12.35.12.7.12h1.73c.58,0,.81-.23.81-.81v-19.06c0-.57-.23-.81-.81-.81h-2.43c-.69,0-.92.35-.92.81Z"/>
    <path class="cls-5" d="M93.61,100.73h2.42c.58,0,.81-.23.81-.81v-14.43c0-1.96-.46-3.47-1.5-4.51-1.04-1.04-2.43-1.61-4.39-1.61-2.66,0-5.43.92-8.08,2.88-.93-1.96-2.66-2.88-5.2-2.88s-5.08.92-7.62,2.65l-.23-1.27c0-.34-.12-.46-.35-.57-.12-.12-.35-.12-.58-.12h-1.85c-.57,0-.8.23-.8.81v19.17c0,.58.23.81.8.81h2.43c.58,0,.81-.23.81-.81v-15.59c1.96-1.16,3.92-1.85,6-1.85,1.16,0,1.97.35,2.43,1.04s.81,1.62.81,3v13.28c0,.58.23.81.81.81h2.42c.58,0,.81-.23.81-.81v-15.47c2.08-1.27,4.04-1.85,6-1.85,1.16,0,1.97.35,2.43,1.04s.81,1.62.81,3v13.28c0,.58.23.81.81.81Z"/>
    <path class="cls-7" d="M156.55,116.09c-12.59,5.32-26.33,7.97-38.81,7.97-18.47,0-36.37-5.08-50.81-13.51-.23-.11-.46-.23-.69-.23-.81,0-1.27.92-.47,1.73,13.4,12.13,31.19,19.4,50.82,19.4,14.09,0,30.37-4.38,41.58-12.7,1.96-1.39.34-3.46-1.62-2.66Z"/>
    <path class="cls-11" d="M156.2,84.57c1.04-1.16,2.66-1.74,4.97-1.74,1.15,0,2.31.12,3.35.46.34.12.46.12.69.12.35,0,.58-.23.58-.81v-1.15c0-.35-.12-.7-.23-.81-.12-.12-.35-.35-.58-.46-1.5-.35-3-.7-4.39-.7-3.23,0-5.66.93-7.51,2.89-1.73,1.85-2.65,4.62-2.65,8.09s.81,6.12,2.54,7.96c1.73,1.85,4.16,2.78,7.39,2.78,1.73,0,3.35-.24,4.62-.81.35-.12.58-.23.69-.46.12-.12.12-.47.12-.81v-1.16c0-.58-.23-.81-.58-.81-.12,0-.35,0-.58.12-1.27.35-2.54.58-3.69.58-2.2,0-3.81-.58-4.85-1.74-1.04-1.15-1.5-3-1.5-5.42v-.58c.11-2.54.57-4.39,1.61-5.54Z"/>
    <path class="cls-9" d="M161.4,126.95c6-5.08,7.62-15.59,6.35-17.21-.58-.69-3.35-1.38-6.81-1.38-3.7,0-8.09.8-11.44,3.11-1.04.7-.8,1.62.23,1.51,3.58-.47,11.67-1.39,13.17.46,1.39,1.85-1.62,9.47-3,12.82-.35,1.04.46,1.38,1.5.69Z"/>
    <path class="cls-8" d="M145.35,79.94h-2.43c-.58,0-.81.24-.81.81v19.17c0,.58.23.81.81.81h2.43c.57,0,.81-.23.81-.81v-19.17c0-.46-.24-.81-.81-.81Z"/>
    <path class="cls-10" d="M146.04,72.09c-.46-.46-1.16-.69-1.96-.69s-1.39.23-1.85.69c-.46.46-.69,1.04-.69,1.74s.23,1.38.69,1.73c.46.46,1.04.69,1.85.69s1.38-.23,1.84-.69c.47-.46.7-1.04.7-1.73s-.12-1.39-.58-1.74Z"/>
    <path class="cls-4" d="M221.04,85.23v-36.4h4.54v32.31h17.55v4.09h-22.09ZM248.37,54.56c-1.52,0-2.75-1.24-2.75-2.75s1.23-2.75,2.75-2.75,2.74,1.21,2.74,2.75-1.21,2.75-2.74,2.75ZM246.17,85.23v-26.23h4.39v26.23h-4.39ZM264.29,85.73c-6.17,0-9.91-3.15-10.44-7.84l-.02-.23h4.39l.05.25c.53,2.63,2.47,4.17,6.05,4.17s5.67-1.49,5.67-3.86v-.03c0-1.89-.98-2.95-3.96-3.68l-4.16-1.01c-4.94-1.19-7.34-3.48-7.34-7.26v-.03c0-4.51,3.96-7.72,9.64-7.72s9.41,3.36,9.73,7.75l.03.32h-4.19l-.02-.17c-.36-2.55-2.3-4.24-5.55-4.24s-5.15,1.54-5.15,3.86v.02c0,1.79,1.19,3.03,4.09,3.74l4.16,1.01c5.3,1.28,7.21,3.38,7.21,7.11v.02c0,4.59-4.33,7.82-10.19,7.82ZM286.02,85.73c-4.81,0-7.18-2.17-7.18-7.19v-15.91h-3.84v-3.63h3.84v-7.09h4.54v7.09h4.99v3.63h-4.99v15.89c0,2.8,1.23,3.58,3.58,3.58.53,0,1.03-.08,1.41-.1v3.56c-.55.07-1.49.17-2.35.17ZM301.58,85.73c-7.55,0-12.09-5.27-12.09-13.52v-.02c0-8.12,4.65-13.7,11.81-13.7s11.52,5.32,11.52,13.19v1.62h-18.89c.1,5.4,3.08,8.55,7.75,8.55,3.33,0,5.67-1.67,6.43-3.91l.07-.23h4.32l-.05.25c-.86,4.34-5.15,7.77-10.87,7.77ZM301.27,62.38c-3.81,0-6.78,2.59-7.26,7.49h14.35c-.43-5.1-3.25-7.49-7.09-7.49ZM315.71,85.23v-26.23h4.39v3.73h.1c1.42-2.45,4.09-4.24,8.07-4.24,5.76,0,9.08,3.74,9.08,9.71v17.03h-4.38v-16.25c0-4.26-2-6.6-6.03-6.6s-6.84,2.95-6.84,7.41v15.44h-4.39ZM361.32,85.73c-7.29,0-12.16-5.27-12.16-13.62v-.05c0-8.35,4.89-13.57,12.13-13.57s12.16,5.2,12.16,13.57v.05c0,8.38-4.89,13.62-12.13,13.62ZM361.34,81.85c4.62,0,7.62-3.58,7.62-9.74v-.05c0-6.15-3.03-9.68-7.67-9.68s-7.64,3.55-7.64,9.68v.05c0,6.18,3.05,9.74,7.69,9.74ZM376.34,85.23v-26.23h4.39v3.73h.1c1.41-2.45,4.09-4.24,8.07-4.24,5.75,0,9.08,3.74,9.08,9.71v17.03h-4.39v-16.25c0-4.26-1.99-6.6-6.03-6.6s-6.83,2.95-6.83,7.41v15.44h-4.39Z"/>
    <path class="cls-1" d="M329.88,113.87v-4.43c0-.29.1-.57.3-.78.2-.21.47-.33.76-.34h19.48c.14-.01.28.02.41.07.13.04.25.12.36.21.1.1.18.22.24.34.06.13.09.27.1.41v3.86c-.24,1.04-.74,2-1.45,2.8l-10.11,14.63c3.84-.21,7.66.63,11.07,2.43.31.17.56.42.74.73.18.3.28.64.29.99v4.73c.02.58-.43,1.06-1,1.08-.15.01-.3-.02-.43-.08-3.16-1.67-6.68-2.54-10.26-2.54s-7.09.87-10.25,2.54c-.67.36-1.38-.38-1.38-1.04v-4.48c-.06-1.06.19-2.11.73-3.03l11.67-17.03h-10.11c-.6.03-1.11-.45-1.14-1.07v-.02l-.02.02ZM250.88,140.61c-.27-.01-.53-.12-.73-.31-.2-.19-.32-.44-.35-.72v-31.27c0-.15.03-.3.09-.44.06-.14.15-.27.26-.37.11-.11.24-.19.38-.25.14-.05.29-.08.44-.08h5.72c.28.02.55.13.76.33.2.19.33.46.36.74v4.08h.1c.51-1.73,1.58-3.23,3.04-4.28,1.46-1.05,3.23-1.58,5.02-1.51,3.83,0,6.25,1.83,7.96,5.79,1.81-4.66,7.06-6.98,11.74-5.17,1.5.57,2.82,1.54,3.82,2.8,1.94,2.63,1.54,6.45,1.54,9.79v19.76c0,.15-.04.3-.1.43-.06.14-.15.27-.26.37-.11.1-.24.18-.38.24-.14.05-.3.08-.45.07h-6.12c-.29-.01-.56-.13-.77-.34-.2-.21-.32-.48-.33-.77v-16.58c.09-1.96.03-3.91-.17-5.86-.12-.84-.57-1.59-1.24-2.1-.67-.5-1.52-.72-2.36-.61h-.01c-.79.03-1.56.29-2.21.74-.65.46-1.15,1.09-1.44,1.83-.51,1.96-.71,3.98-.58,6v16.57c0,.15-.03.3-.09.44-.06.13-.15.26-.25.36-.11.11-.24.19-.38.24-.13.06-.28.08-.43.08h-6.14c-.29-.01-.56-.13-.77-.34-.2-.21-.32-.48-.33-.78v-16.57c0-3.49.58-8.63-3.76-8.63s-4.23,5-4.23,8.63v16.57c0,.15-.04.3-.09.44-.06.13-.15.26-.26.36-.1.11-.23.19-.37.24-.14.06-.29.09-.43.08h-6.2ZM367.66,106.52c9.11,0,14.01,7.62,14.01,17.3s-5.43,16.79-14.01,16.79-13.8-7.62-13.8-17.1,4.87-16.99,13.75-16.99h.05ZM362.83,122.57c0,3.75,0,11.76,4.82,11.76s5.03-6.47,5.03-10.41c.11-2.74-.2-5.48-.92-8.13-.39-1.83-2.12-3.1-4.06-2.98-4.57,0-4.87,6.01-4.87,9.76ZM393.73,140.54h-5.65c-.57-.02-1.02-.51-1.03-1.11v-31.23c.06-.59.54-1.04,1.09-1.03h5.27c.48.03.89.39,1.02.89v4.75h.1c1.62-4.25,3.82-6.28,7.74-6.28,2.67-.14,5.2,1.26,6.63,3.66,1.48,2.49,1.48,6.68,1.48,9.7v19.75c-.08.57-.55.99-1.09.97h-5.69c-.51-.02-.94-.43-1.02-.97v-16.9c0-3.47.37-8.4-3.55-8.4-1.44.08-2.71,1.06-3.24,2.5-.71,1.88-1.02,3.89-.91,5.9v16.76c-.02.64-.53,1.14-1.13,1.11h-.02v-.07ZM320.22,140.1c-.19.17-.43.27-.69.29-.25.03-.51-.03-.73-.15-1.38-1.11-2.54-2.45-3.43-3.98-1.2,1.45-2.72,2.59-4.44,3.35-1.73.75-3.6,1.09-5.48.99-5.14,0-9-3.11-9-9.3-.11-4.25,2.45-8.13,6.41-9.73,3.26-1.42,7.83-1.71,11.31-2.06v-.79c.19-1.48-.07-2.98-.74-4.31-.4-.52-.92-.93-1.52-1.21-.6-.27-1.26-.39-1.91-.34-2.29-.19-4.36,1.34-4.84,3.58-.03.27-.15.52-.34.72-.19.2-.43.33-.7.37l-5.82-.62c-.28-.05-.52-.22-.68-.45-.15-.24-.21-.53-.16-.81,1.34-7,7.72-9.12,13.45-9.12,3.26-.11,6.46.94,9.02,2.97,2.91,2.71,2.64,6.32,2.64,10.23v9.29c.03,2.06.84,4.03,2.26,5.52.21.21.32.49.32.79s-.11.57-.32.78c-1.23,1.03-3.43,2.9-4.61,3.97v.02ZM314.32,125.7v-1.23c-4.34,0-8.9.88-8.9,5.74,0,2.46,1.33,4.12,3.64,4.12,1.78-.06,3.39-1.05,4.17-2.59.95-1.86,1.33-3.96,1.09-6.04ZM241.21,140.1c-.2.17-.44.27-.69.29-.26.03-.51-.03-.73-.15-1.37-1.11-2.53-2.46-3.43-3.97-1.19,1.44-2.7,2.58-4.42,3.33-1.71.75-3.58,1.09-5.45,1-5.05,0-8.98-3.1-8.98-9.29-.07-2.09.51-4.14,1.66-5.88,1.14-1.75,2.8-3.09,4.74-3.86,3.25-1.41,7.78-1.7,11.27-2.06v-.79c.19-1.48-.07-2.98-.73-4.31-.41-.51-.93-.92-1.52-1.19-.6-.27-1.25-.4-1.9-.36-1.1-.09-2.2.23-3.08.88-.89.66-1.5,1.62-1.73,2.7-.03.27-.15.52-.34.72-.19.2-.44.33-.71.37l-5.81-.61c-.27-.07-.51-.24-.66-.47-.15-.24-.2-.52-.15-.8,1.34-7,7.7-9.12,13.42-9.12,3.26-.11,6.46.94,9.01,2.97,2.93,2.71,2.64,6.32,2.64,10.23v9.29c.03,2.06.83,4.03,2.26,5.52.43.42.44,1.11.02,1.55l-.02.02c-1.22,1.03-3.43,2.9-4.59,3.98h-.08ZM235.38,124.47c-4.33,0-8.9.88-8.9,5.74,0,2.46,1.34,4.12,3.63,4.12,1.78-.07,3.37-1.06,4.15-2.59.96-1.86,1.35-3.96,1.12-6.03v-1.24ZM295.95,166.63c-18.85.1-37.06-7.24-51.07-20.6-1.07-1-.12-2.38,1.15-1.6,15.6,9.42,33.25,14.36,51.21,14.33,13.39-.07,26.63-2.93,38.97-8.43,1.84-.86,3.44,1.33,1.56,2.78-11.31,8.82-27.69,13.52-41.82,13.52ZM342.26,147.69c-1.47-1.91-9.73-.91-13.45-.44-1.14.12-1.31-.88-.29-1.59,6.6-4.71,17.4-3.36,18.66-1.79,1.26,1.57-.33,12.6-6.51,17.85-.97.82-1.86.37-1.44-.68,1.39-3.52,4.5-11.42,3.03-13.35ZM532.66,135.42c1.16-.8,1.81-2.11,1.75-3.47.02-.46-.06-.92-.23-1.35-.18-.43-.44-.81-.78-1.12-1.12-.87-2.38-1.51-3.74-1.91l-5.62-2.02c-4.87-1.67-7.33-4.69-7.33-8.87-.09-2.62,1.16-5.13,3.34-6.71,2.52-1.78,5.6-2.67,8.72-2.53,2.86,0,5.7.49,8.38,1.46.43.11.82.33,1.14.65.23.37.34.81.31,1.24v1.68c0,.75-.28,1.14-.86,1.14-.51-.04-1.02-.15-1.51-.32-2.32-.67-4.72-1.01-7.13-1.01-4.22,0-6.35,1.36-6.35,4.11-.03.49.06.97.24,1.42.18.45.47.86.83,1.18,1.26.92,2.66,1.62,4.15,2.08l5.24,1.9c2.09.71,3.97,1.92,5.49,3.52,1.21,1.45,1.83,3.29,1.75,5.17.11,2.78-1.2,5.45-3.49,7.15-2.71,1.9-6.02,2.85-9.37,2.68-3.41.05-6.79-.56-9.97-1.78-.41-.14-.78-.38-1.08-.68-.22-.37-.33-.79-.3-1.21v-1.78c0-.76.26-1.14.79-1.14.56.06,1.12.19,1.65.38,2.93.9,5.98,1.34,9.05,1.33,1.73.12,3.45-.3,4.93-1.21v.02ZM503.57,108.73c-.04-.3.04-.61.22-.85.19-.24.46-.41.76-.45.11-.01.21-.01.31,0h3.79c.15-.02.3-.01.45.03.14.04.28.11.4.2s.22.2.3.33c.07.13.12.28.14.42.02.11.02.22,0,.32v30.45c.1.64-.34,1.23-.96,1.32-.11.02-.22.02-.33,0h-2.77c-.35.02-.69-.07-.98-.26-.29-.25-.46-.6-.5-.98l-.44-2.29c-3.48,2.83-7.8,4.42-12.28,4.52-1.3.09-2.6-.1-3.82-.55-1.21-.45-2.32-1.15-3.25-2.07-1.73-2.05-2.61-4.7-2.45-7.38v-22.76c-.04-.3.04-.61.23-.85.18-.25.46-.41.76-.45.1-.01.2-.01.31,0h3.79c.17-.02.35-.01.52.05.17.06.32.15.44.28.13.12.22.28.28.45.06.17.07.34.05.52v20.75c-.15,1.83.32,3.66,1.34,5.19.53.6,1.2,1.08,1.95,1.38.75.3,1.56.42,2.36.35,3.35-.09,6.59-1.18,9.32-3.13l.06-24.54h0ZM469,140.6c-.15.02-.3.01-.45-.02-.15-.04-.28-.11-.41-.2-.12-.09-.22-.2-.3-.33-.07-.13-.12-.28-.14-.43-.02-.11-.02-.22,0-.33v-21.14c.13-1.71-.31-3.41-1.24-4.84-.48-.55-1.08-.98-1.76-1.25-.67-.27-1.4-.38-2.13-.31-3.38.07-6.68,1.09-9.52,2.94.03.32.03.65,0,.97v23.63c.03.17.01.35-.05.53-.05.17-.15.32-.27.45-.13.13-.28.22-.45.28-.17.06-.36.07-.53.05h-3.82c-.15.02-.3.01-.45-.02-.15-.04-.28-.11-.41-.2-.12-.09-.22-.2-.3-.33-.07-.13-.12-.28-.14-.43-.02-.11-.02-.22,0-.33v-21.14c.12-1.7-.31-3.4-1.22-4.84-.48-.55-1.09-.97-1.76-1.24-.68-.27-1.4-.38-2.13-.32-3.37.02-6.66,1.02-9.47,2.87v24.66c.04.31-.03.62-.22.86-.18.25-.45.41-.75.46-.11.01-.21.01-.32,0h-3.83c-.18.02-.36,0-.53-.05-.17-.06-.32-.16-.44-.29-.13-.12-.22-.28-.28-.45-.05-.17-.06-.35-.04-.52v-30.47c-.04-.29.03-.6.21-.84.18-.24.45-.41.74-.45.11-.02.23-.02.34,0h2.87c.35-.02.7.07,1,.26.28.24.46.59.5.96l.37,2.1c3.51-2.65,7.74-4.15,12.13-4.31,4.02,0,6.73,1.54,8.17,4.64,3.67-2.89,8.17-4.51,12.83-4.64,2.54-.16,5.02.76,6.85,2.54,1.71,2.02,2.57,4.62,2.4,7.25v22.95c.03.18.01.36-.04.53-.06.18-.15.33-.28.46s-.28.22-.45.28c-.17.06-.35.07-.53.05h-3.75ZM568.28,115.48c-1.59,1.82-2.38,4.73-2.38,8.73v.84c0,3.9.82,6.82,2.41,8.53,1,.98,2.2,1.73,3.51,2.21,1.32.47,2.72.65,4.12.53,1.95-.02,3.9-.33,5.77-.9.32-.1.64-.16.97-.19.56,0,.83.43.83,1.28v1.7c.03.43-.06.86-.25,1.23-.27.34-.63.58-1.04.7-2.32.95-4.81,1.42-7.32,1.37-5.09,0-8.91-1.45-11.6-4.35-2.68-2.9-4-7.1-4-12.59s1.37-9.67,4.14-12.65c1.52-1.54,3.36-2.73,5.38-3.5,2.02-.77,4.18-1.1,6.34-.97,2.32,0,4.62.42,6.79,1.23.38.11.73.33,1,.63.22.39.32.84.29,1.29v1.71c0,.85-.29,1.28-.83,1.28-.36-.02-.7-.08-1.04-.19-1.73-.51-3.53-.77-5.33-.77-3.57.12-6.15,1.03-7.74,2.85h-.02ZM551.73,109.22c.62-.09,1.18.34,1.27.96.02.1.02.21,0,.31v29.72c.03.17,0,.35-.04.52-.05.16-.15.32-.27.44s-.27.22-.44.27c-.17.06-.34.08-.52.05h-3.73c-.14.02-.29.01-.43-.03-.15-.04-.28-.1-.4-.19-.11-.09-.21-.21-.28-.33-.08-.13-.12-.27-.14-.42-.02-.1-.02-.21,0-.31v-29.71c-.03-.17,0-.34.04-.51.06-.16.15-.31.27-.43.12-.12.27-.22.43-.27.17-.06.34-.07.51-.05l3.73-.02ZM552.84,96.86c1.43,1.68,1.43,4.19,0,5.86-.82.72-1.87,1.11-2.96,1.11s-2.13-.39-2.96-1.11c-1.44-1.66-1.44-4.19,0-5.86.83-.71,1.88-1.11,2.96-1.11s2.14.4,2.96,1.11Z"/>
  </g>
</svg>