<?xml version="1.0" encoding="UTF-8"?>
<svg id="Layer_2" data-name="Layer 2" xmlns="http://www.w3.org/2000/svg" xmlns:xlink="http://www.w3.org/1999/xlink" viewBox="0 0 623.42 202.86">
  <defs>
    <style>
      .cls-1 {
        fill: none;
        stroke: url(#linear-gradient);
        stroke-width: 4.95px;
      }

      .cls-2 {
        fill: #fff;
      }

      .cls-3 {
        fill: url(#linear-gradient-3);
      }

      .cls-4 {
        fill: url(#linear-gradient-2);
        fill-rule: evenodd;
      }
    </style>
    <linearGradient id="linear-gradient" x1="1278.71" y1="7664.06" x2="1278.71" y2="7856.94" gradientTransform="translate(-967 7863.68) scale(1 -1)" gradientUnits="userSpaceOnUse">
      <stop offset="0" stop-color="#fa233b"/>
      <stop offset="1" stop-color="#fb5c74"/>
    </linearGradient>
    <linearGradient id="linear-gradient-2" x1="1082.44" y1="7717.13" x2="1082.44" y2="7807.69" xlink:href="#linear-gradient"/>
    <linearGradient id="linear-gradient-3" x1="1365.42" y1="7692.26" x2="1365.42" y2="7767.3" xlink:href="#linear-gradient"/>
  </defs>
  <g id="Layer_1-2" data-name="Layer 1">
    <rect class="cls-1" x="2.47" y="2.47" width="618.47" height="197.91" rx="49.48" ry="49.48"/>
    <path class="cls-4" d="M148.5,54.01c-.33.03-3.26.55-3.61.62l-40.6,8.19h-.01c-1.06.23-1.89.6-2.53,1.14-.78.65-1.21,1.57-1.37,2.64-.03.23-.09.69-.09,1.37v50.81c0,1.19-.1,2.34-.9,3.32-.8.98-1.8,1.28-2.96,1.51-.89.18-1.77.36-2.65.53-3.36.68-5.54,1.14-7.52,1.9-1.89.73-3.3,1.67-4.43,2.85-2.23,2.34-3.14,5.52-2.83,8.49.27,2.54,1.41,4.97,3.37,6.76,1.32,1.21,2.98,2.14,4.93,2.53,2.02.41,4.18.27,7.33-.37,1.67-.34,3.24-.86,4.74-1.75,1.48-.87,2.74-2.04,3.73-3.46,1-1.42,1.64-3.01,1.99-4.69.37-1.73.45-3.3.45-5.03v-44.07c0-2.36.67-2.98,2.58-3.45,0,0,33.74-6.81,35.31-7.11,2.2-.42,3.24.2,3.24,2.51v30.08c0,1.19-.01,2.4-.83,3.38-.8.98-1.79,1.28-2.96,1.51-.88.18-1.77.36-2.65.54-3.36.68-5.54,1.13-7.51,1.9-1.89.73-3.31,1.67-4.43,2.85-2.24,2.34-3.23,5.52-2.91,8.49.26,2.54,1.48,4.97,3.44,6.76,1.33,1.21,2.98,2.11,4.93,2.5,2.02.41,4.18.26,7.33-.37,1.68-.34,3.25-.84,4.74-1.73,1.48-.87,2.75-2.04,3.74-3.46.99-1.42,1.63-3.01,1.99-4.69.36-1.73.38-3.3.38-5.03V57.59c0-2.34-1.23-3.78-3.43-3.59Z"/>
    <path class="cls-3" d="M224.01,155.72l16.21-45.32h9.11l16.2,45.32h-8.51l-3.83-11.72h-16.87l-3.83,11.72h-8.48ZM244.68,118.47l-6.32,19.28h12.79l-6.28-19.28h-.19ZM269.58,166.71v-44.28h7.82v5.75h.16c1.92-3.99,5.56-6.44,10.33-6.44,8.45,0,13.79,6.6,13.79,17.34v.03c0,10.68-5.34,17.27-13.69,17.27-4.74,0-8.55-2.39-10.43-6.28h-.16v16.61h-7.82ZM285.57,149.78c4.99,0,8.13-4.11,8.13-10.68v-.03c0-6.66-3.14-10.74-8.13-10.74s-8.23,4.21-8.23,10.74v.03c0,6.5,3.39,10.68,8.23,10.68ZM306.71,166.71v-44.28h7.82v5.75h.15c1.92-3.99,5.56-6.44,10.34-6.44,8.44,0,13.78,6.6,13.78,17.34v.03c0,10.68-5.34,17.27-13.69,17.27-4.74,0-8.54-2.39-10.43-6.28h-.15v16.61h-7.82ZM322.69,149.78c5,0,8.14-4.11,8.14-10.68v-.03c0-6.66-3.14-10.74-8.14-10.74s-8.23,4.21-8.23,10.74v.03c0,6.5,3.4,10.68,8.23,10.68ZM344.05,155.72v-45.32h7.82v45.32h-7.82ZM373.16,156.38c-9.98,0-16.01-6.63-16.01-17.21v-.03c0-10.49,6.12-17.4,15.64-17.4s15.42,6.69,15.42,16.74v2.51h-23.31c.13,5.84,3.33,9.3,8.42,9.3,3.89,0,6.44-2.07,7.19-4.3l.06-.22h7.32l-.09.35c-1.04,5.12-5.94,10.27-14.64,10.27ZM372.88,127.86c-4.15,0-7.25,2.8-7.88,7.92h15.61c-.57-5.28-3.58-7.92-7.73-7.92ZM406.92,155.72v-45.32h9.36l13.89,34.61h.22l13.88-34.61h9.36v45.32h-7.29v-32.22h-.25l-13.07,32.22h-5.49l-13.07-32.22h-.22v32.22h-7.32ZM472.19,156.38c-7.32,0-11.5-4.71-11.5-12.44v-21.51h7.82v19.97c0,4.71,2.2,7.38,6.66,7.38s7.35-3.23,7.35-8.07v-19.28h7.82v33.29h-7.82v-5.21h-.16c-1.72,3.55-5.15,5.87-10.17,5.87ZM509.78,156.38c-8.73,0-13.72-4.15-14.41-10.33l-.04-.28h7.7l.06.28c.6,2.86,2.77,4.55,6.72,4.55s6.1-1.54,6.1-3.99v-.03c0-2.01-1.17-3.14-4.62-3.93l-5.53-1.23c-6.37-1.41-9.58-4.52-9.58-9.45v-.03c0-6.09,5.31-10.21,13.35-10.21s13.13,4.55,13.41,10.3l.03.35h-7.28l-.03-.25c-.35-2.67-2.49-4.62-6.13-4.62-3.45,0-5.62,1.6-5.62,4.05v.03c0,1.92,1.29,3.17,4.74,3.96l5.56,1.23c6.88,1.54,9.55,4.24,9.55,9.08v.03c0,6.28-5.81,10.49-13.98,10.49ZM532.9,117.65c-2.45,0-4.37-1.95-4.37-4.27s1.92-4.3,4.37-4.3,4.33,1.92,4.33,4.3-1.88,4.27-4.33,4.27ZM528.97,155.72v-33.29h7.82v33.29h-7.82ZM558.15,156.38c-9.89,0-16.08-6.66-16.08-17.34v-.03c0-10.62,6.28-17.27,15.98-17.27,8.77,0,14.23,5.56,14.7,12.22l.03.25h-7.38l-.06-.28c-.66-3.24-3.05-5.84-7.19-5.84-4.93,0-8.1,4.18-8.1,10.99v.03c0,6.94,3.2,10.96,8.13,10.96,3.96,0,6.47-2.36,7.19-5.84l.06-.28h7.39l-.04.22c-.59,6.94-6.21,12.22-14.63,12.22Z"/>
    <g>
      <path class="cls-2" d="M231.94,57.31v14.03h16.49v4.42h-16.49v17.25h-5.43v-40.12h24.72v4.42h-19.29Z"/>
      <path class="cls-2" d="M250.62,68.65c1.57-1.51,3.26-2.64,5.07-3.39,1.81-.75,3.82-1.12,6.02-1.12,1.59,0,3,.26,4.23.78s2.27,1.25,3.11,2.18c.84.93,1.47,2.06,1.9,3.39.43,1.33.64,2.78.64,4.37v18.14h-2.21c-.49,0-.86-.08-1.12-.24-.26-.16-.47-.47-.62-.94l-.56-2.69c-.75.69-1.48,1.3-2.18,1.83-.71.53-1.46.98-2.24,1.34-.78.36-1.62.64-2.51.84-.89.2-1.87.29-2.95.29s-2.14-.15-3.11-.46c-.97-.31-1.82-.77-2.53-1.39-.72-.62-1.29-1.39-1.71-2.34-.42-.94-.63-2.06-.63-3.35,0-1.12.31-2.2.92-3.23.62-1.04,1.61-1.96,3-2.76,1.38-.8,3.18-1.46,5.4-1.97,2.22-.51,4.95-.81,8.18-.88v-2.21c0-2.2-.48-3.87-1.43-5-.95-1.13-2.34-1.69-4.17-1.69-1.23,0-2.26.15-3.09.46s-1.55.65-2.16,1.04c-.61.38-1.13.73-1.57,1.04-.44.31-.87.46-1.3.46-.34,0-.63-.09-.87-.27-.24-.18-.45-.4-.62-.66l-.9-1.6ZM266.72,80.25c-2.3.07-4.25.26-5.87.55-1.61.29-2.93.67-3.95,1.13-1.02.47-1.75,1.02-2.21,1.65-.46.63-.69,1.34-.69,2.13s.12,1.39.36,1.93c.24.54.57.98.99,1.33.42.35.91.6,1.48.76.57.16,1.18.24,1.83.24.88,0,1.68-.09,2.41-.27.73-.18,1.41-.43,2.06-.77s1.26-.74,1.85-1.2c.59-.47,1.16-1,1.72-1.6v-5.88Z"/>
      <path class="cls-2" d="M301.21,64.65l-11.56,28.36h-4.48l-11.56-28.36h4.06c.41,0,.75.1,1.01.31.26.21.44.45.53.73l7.2,18.26c.22.69.42,1.36.59,2.02s.33,1.31.48,1.96c.15-.65.31-1.31.48-1.96s.37-1.33.62-2.02l7.28-18.26c.11-.3.3-.55.56-.74.26-.2.57-.29.92-.29h3.89Z"/>
      <path class="cls-2" d="M315.29,64.2c2.07,0,3.94.34,5.6,1.04,1.66.69,3.08,1.67,4.26,2.94,1.18,1.27,2.08,2.8,2.7,4.61.63,1.8.94,3.81.94,6.03s-.31,4.26-.94,6.05-1.53,3.32-2.7,4.59c-1.18,1.27-2.59,2.24-4.26,2.93-1.66.68-3.53,1.02-5.6,1.02s-3.97-.34-5.64-1.02c-1.67-.68-3.09-1.66-4.27-2.93-1.18-1.27-2.08-2.8-2.7-4.59-.63-1.79-.94-3.81-.94-6.05s.31-4.23.94-6.03c.62-1.8,1.53-3.34,2.7-4.61,1.18-1.27,2.6-2.25,4.27-2.94,1.67-.69,3.55-1.04,5.64-1.04ZM315.29,89.52c2.8,0,4.89-.94,6.27-2.81s2.07-4.49,2.07-7.85-.69-6.01-2.07-7.9c-1.38-1.88-3.47-2.83-6.27-2.83-1.42,0-2.66.24-3.71.73s-1.93,1.19-2.63,2.1c-.7.92-1.22,2.04-1.57,3.37-.35,1.33-.52,2.84-.52,4.52,0,3.36.7,5.98,2.09,7.85,1.39,1.88,3.5,2.81,6.34,2.81Z"/>
      <path class="cls-2" d="M338.14,70.34c.9-1.94,2-3.46,3.3-4.55,1.31-1.09,2.9-1.64,4.79-1.64.6,0,1.17.07,1.72.2.55.13,1.04.34,1.47.62l-.36,3.72c-.11.47-.39.7-.84.7-.26,0-.64-.06-1.15-.17-.5-.11-1.07-.17-1.71-.17-.9,0-1.69.13-2.39.39-.7.26-1.33.65-1.88,1.16-.55.51-1.05,1.15-1.48,1.9s-.84,1.62-1.19,2.59v17.92h-5.01v-28.36h2.86c.54,0,.91.1,1.12.31s.35.56.42,1.06l.34,4.31Z"/>
      <path class="cls-2" d="M358.44,55.75c0,.49-.1.94-.29,1.36-.2.42-.46.79-.78,1.12s-.71.58-1.15.77-.9.28-1.39.28-.94-.09-1.36-.28-.79-.44-1.11-.77c-.32-.33-.57-.7-.76-1.12s-.28-.87-.28-1.36.09-.95.28-1.39c.19-.44.44-.82.76-1.15.32-.33.69-.58,1.11-.77.42-.19.87-.28,1.36-.28s.95.09,1.39.28c.44.19.82.44,1.15.77.33.33.59.71.78,1.15.2.44.29.9.29,1.39ZM357.38,64.65v28.36h-4.98v-28.36h4.98Z"/>
      <path class="cls-2" d="M372.58,93.46c-2.24,0-3.96-.62-5.17-1.88-1.2-1.25-1.81-3.05-1.81-5.4v-17.36h-3.42c-.3,0-.55-.09-.76-.27-.21-.18-.31-.45-.31-.83v-1.99l4.65-.59,1.15-8.76c.06-.28.18-.51.38-.69.2-.18.45-.27.77-.27h2.52v9.77h8.2v3.61h-8.2v17.02c0,1.19.29,2.08.87,2.66.58.58,1.33.87,2.24.87.52,0,.98-.07,1.36-.21.38-.14.71-.29.99-.46.28-.17.52-.32.71-.46.2-.14.37-.21.52-.21.26,0,.49.16.7.48l1.46,2.38c-.86.8-1.9,1.43-3.11,1.89-1.21.46-2.46.69-3.75.69Z"/>
      <path class="cls-2" d="M405.15,89.04c-.62.75-1.35,1.4-2.21,1.95-.86.55-1.78,1-2.76,1.36s-1.99.62-3.04.8c-1.05.18-2.08.27-3.11.27-1.96,0-3.77-.33-5.42-.99-1.65-.66-3.08-1.63-4.28-2.91s-2.14-2.86-2.81-4.75-1.01-4.05-1.01-6.5c0-1.98.3-3.83.91-5.54.61-1.72,1.48-3.21,2.62-4.47,1.14-1.26,2.53-2.25,4.17-2.97,1.64-.72,3.49-1.08,5.54-1.08,1.7,0,3.27.28,4.72.85,1.45.57,2.7,1.39,3.75,2.46,1.05,1.07,1.88,2.4,2.48,3.98.6,1.58.9,3.37.9,5.39,0,.78-.08,1.31-.25,1.57-.17.26-.49.39-.95.39h-18.96c.06,1.79.3,3.35.74,4.68.44,1.33,1.05,2.43,1.83,3.32.78.89,1.72,1.55,2.8,1.99s2.3.66,3.64.66c1.25,0,2.33-.14,3.23-.43.91-.29,1.68-.6,2.34-.94s1.2-.65,1.64-.94c.44-.29.82-.43,1.13-.43.41,0,.73.16.95.48l1.4,1.82ZM401.11,75.74c0-1.16-.16-2.22-.49-3.18-.33-.96-.8-1.79-1.43-2.49-.63-.7-1.39-1.24-2.28-1.62-.9-.38-1.91-.57-3.05-.57-2.39,0-4.28.7-5.67,2.09s-2.25,3.32-2.59,5.78h15.51Z"/>
      <path class="cls-2" d="M422.67,93.02v-28.36h3c.71,0,1.15.35,1.32,1.04l.36,2.91c1.04-1.29,2.22-2.34,3.53-3.16s2.82-1.23,4.54-1.23c1.9,0,3.45.53,4.63,1.6,1.19,1.06,2.04,2.5,2.56,4.31.41-1.03.94-1.91,1.58-2.66.64-.75,1.37-1.36,2.17-1.85.8-.49,1.66-.84,2.56-1.06.9-.22,1.82-.34,2.76-.34,1.49,0,2.82.24,3.99.71,1.17.48,2.16,1.17,2.97,2.09.81.91,1.43,2.04,1.86,3.37.43,1.33.64,2.86.64,4.58v18.06h-5.01v-18.06c0-2.22-.49-3.91-1.46-5.05-.97-1.15-2.37-1.72-4.2-1.72-.82,0-1.6.14-2.34.43-.74.29-1.39.71-1.95,1.27-.56.56-1,1.26-1.33,2.11-.33.85-.49,1.83-.49,2.95v18.06h-5.01v-18.06c0-2.28-.46-3.98-1.37-5.1-.92-1.12-2.25-1.68-4-1.68-1.23,0-2.37.33-3.42.99-1.05.66-2.01,1.56-2.88,2.7v21.14h-5.01Z"/>
      <path class="cls-2" d="M490.07,89.04c-.62.75-1.35,1.4-2.21,1.95-.86.55-1.78,1-2.76,1.36s-1.99.62-3.04.8c-1.05.18-2.08.27-3.11.27-1.96,0-3.77-.33-5.42-.99-1.65-.66-3.08-1.63-4.28-2.91s-2.14-2.86-2.81-4.75-1.01-4.05-1.01-6.5c0-1.98.3-3.83.91-5.54.61-1.72,1.48-3.21,2.62-4.47,1.14-1.26,2.53-2.25,4.17-2.97,1.64-.72,3.49-1.08,5.54-1.08,1.7,0,3.27.28,4.72.85,1.45.57,2.7,1.39,3.75,2.46,1.05,1.07,1.88,2.4,2.48,3.98.6,1.58.9,3.37.9,5.39,0,.78-.08,1.31-.25,1.57-.17.26-.49.39-.95.39h-18.96c.06,1.79.3,3.35.74,4.68.44,1.33,1.05,2.43,1.83,3.32.78.89,1.72,1.55,2.8,1.99s2.3.66,3.64.66c1.25,0,2.33-.14,3.23-.43.91-.29,1.68-.6,2.34-.94s1.2-.65,1.64-.94c.44-.29.82-.43,1.13-.43.41,0,.73.16.95.48l1.4,1.82ZM486.04,75.74c0-1.16-.16-2.22-.49-3.18-.33-.96-.8-1.79-1.43-2.49-.63-.7-1.39-1.24-2.28-1.62-.9-.38-1.91-.57-3.05-.57-2.39,0-4.28.7-5.67,2.09s-2.25,3.32-2.59,5.78h15.51Z"/>
      <path class="cls-2" d="M519.55,64.2c2.07,0,3.94.34,5.6,1.04,1.66.69,3.08,1.67,4.26,2.94,1.18,1.27,2.08,2.8,2.7,4.61.63,1.8.94,3.81.94,6.03s-.31,4.26-.94,6.05-1.53,3.32-2.7,4.59c-1.18,1.27-2.59,2.24-4.26,2.93-1.66.68-3.53,1.02-5.6,1.02s-3.97-.34-5.64-1.02c-1.67-.68-3.09-1.66-4.27-2.93-1.18-1.27-2.08-2.8-2.7-4.59-.63-1.79-.94-3.81-.94-6.05s.31-4.23.94-6.03c.62-1.8,1.53-3.34,2.7-4.61,1.18-1.27,2.6-2.25,4.27-2.94,1.67-.69,3.55-1.04,5.64-1.04ZM519.55,89.52c2.8,0,4.89-.94,6.27-2.81s2.07-4.49,2.07-7.85-.69-6.01-2.07-7.9c-1.38-1.88-3.47-2.83-6.27-2.83-1.42,0-2.66.24-3.71.73s-1.93,1.19-2.63,2.1c-.7.92-1.22,2.04-1.57,3.37-.35,1.33-.52,2.84-.52,4.52,0,3.36.7,5.98,2.09,7.85,1.39,1.88,3.5,2.81,6.34,2.81Z"/>
      <path class="cls-2" d="M542.37,68.77c.62-.69,1.27-1.32,1.96-1.88s1.42-1.04,2.2-1.44c.77-.4,1.6-.71,2.46-.92.87-.21,1.81-.32,2.81-.32,1.55,0,2.92.26,4.1.77,1.19.51,2.17,1.24,2.97,2.18.79.94,1.4,2.08,1.81,3.4s.62,2.79.62,4.4v18.06h-5.01v-18.06c0-2.15-.49-3.81-1.47-5s-2.47-1.78-4.47-1.78c-1.47,0-2.85.35-4.13,1.06-1.28.71-2.46,1.67-3.54,2.88v20.89h-5.01v-28.36h3c.71,0,1.15.35,1.32,1.04l.39,3.08Z"/>
    </g>
  </g>
</svg>