<?xml version="1.0" encoding="UTF-8"?>
<svg id="Layer_2" data-name="Layer 2" xmlns="http://www.w3.org/2000/svg" xmlns:xlink="http://www.w3.org/1999/xlink" viewBox="0 0 660.53 210.28">
  <defs>
    <style>
      .cls-1 {
        fill: url(#linear-gradient-15);
      }

      .cls-2 {
        fill: url(#linear-gradient-13);
      }

      .cls-3 {
        fill: url(#linear-gradient-2);
      }

      .cls-4 {
        fill: none;
        stroke: url(#linear-gradient);
        stroke-width: 4.95px;
      }

      .cls-5 {
        fill: url(#linear-gradient-10);
      }

      .cls-6 {
        fill: url(#linear-gradient-12);
      }

      .cls-7 {
        fill: #fff;
      }

      .cls-8 {
        fill: url(#linear-gradient-4);
      }

      .cls-9 {
        fill: url(#linear-gradient-3);
      }

      .cls-10 {
        fill: url(#linear-gradient-5);
      }

      .cls-11 {
        fill: url(#linear-gradient-8);
      }

      .cls-12 {
        fill: url(#linear-gradient-14);
      }

      .cls-13 {
        fill: url(#linear-gradient-7);
      }

      .cls-14 {
        fill: url(#linear-gradient-9);
      }

      .cls-15 {
        fill: url(#linear-gradient-11);
      }

      .cls-16 {
        fill: url(#linear-gradient-6);
      }

      .cls-17 {
        fill: url(#linear-gradient-16);
      }
    </style>
    <linearGradient id="linear-gradient" x1="1297.26" y1="8392.56" x2="1297.26" y2="7487.41" gradientTransform="translate(-967 7871.1) scale(1 -1)" gradientUnits="userSpaceOnUse">
      <stop offset="0" stop-color="#f8a01d"/>
      <stop offset=".71" stop-color="#f26e23"/>
      <stop offset="1" stop-color="#ef5826"/>
    </linearGradient>
    <linearGradient id="linear-gradient-2" x1="1124.22" y1="7922.86" x2="1124.22" y2="7696.25" xlink:href="#linear-gradient"/>
    <linearGradient id="linear-gradient-3" x1="1092.16" y1="7922.86" x2="1092.16" y2="7696.25" xlink:href="#linear-gradient"/>
    <linearGradient id="linear-gradient-4" x1="1061.65" y1="7922.86" x2="1061.65" y2="7696.25" xlink:href="#linear-gradient"/>
    <linearGradient id="linear-gradient-5" x1="1056.79" y1="7922.86" x2="1056.79" y2="7696.25" xlink:href="#linear-gradient"/>
    <linearGradient id="linear-gradient-6" x1="1051.87" y1="7922.86" x2="1051.87" y2="7696.25" xlink:href="#linear-gradient"/>
    <linearGradient id="linear-gradient-7" x1="1032.91" y1="7922.86" x2="1032.91" y2="7696.25" xlink:href="#linear-gradient"/>
    <linearGradient id="linear-gradient-8" x1="1037.42" y1="7922.86" x2="1037.42" y2="7696.25" xlink:href="#linear-gradient"/>
    <linearGradient id="linear-gradient-9" x1="1042.22" y1="7922.84" x2="1042.22" y2="7696.23" xlink:href="#linear-gradient"/>
    <linearGradient id="linear-gradient-10" x1="1047.04" y1="7922.86" x2="1047.04" y2="7696.25" xlink:href="#linear-gradient"/>
    <linearGradient id="linear-gradient-11" x1="1087.04" y1="7922.86" x2="1087.04" y2="7696.25" xlink:href="#linear-gradient"/>
    <linearGradient id="linear-gradient-12" x1="1066.71" y1="7922.86" x2="1066.71" y2="7696.25" xlink:href="#linear-gradient"/>
    <linearGradient id="linear-gradient-13" x1="1081.88" y1="7922.86" x2="1081.88" y2="7696.25" xlink:href="#linear-gradient"/>
    <linearGradient id="linear-gradient-14" x1="1071.73" y1="7922.86" x2="1071.73" y2="7696.25" xlink:href="#linear-gradient"/>
    <linearGradient id="linear-gradient-15" x1="1076.76" y1="7922.86" x2="1076.76" y2="7696.25" xlink:href="#linear-gradient"/>
    <linearGradient id="linear-gradient-16" x1="1377.55" y1="7915.37" x2="1377.55" y2="7646.47" xlink:href="#linear-gradient"/>
  </defs>
  <g id="Layer_1-2" data-name="Layer 1">
    <rect class="cls-4" x="2.47" y="2.47" width="655.58" height="205.33" rx="49.48" ry="49.48"/>
    <path class="cls-3" d="M186.3,116.26c.02-8.07-6.7-14.6-14.95-14.6-2.06,0-4.02.41-5.83,1.13-1.21-13.1-12.53-23.38-26.33-23.38-3.39,0-6.67.61-9.58,1.74-1.16.41-1.48.81-1.48,1.7v46.19c0,.92.74,1.59,1.63,1.7h41.57c8.25,0,14.97-6.48,14.97-14.48Z"/>
    <path class="cls-9" d="M126.77,84.39c-.07-.56-.38-1.07-.85-1.33-.21-.15-.54-.26-.8-.26-.42,0-.8.15-1.07.35-.36.31-.59.78-.63,1.24v.15l-.63,32.69.33,6.01.32,5.86c.06.87.8,1.59,1.7,1.59s1.63-.72,1.63-1.59l.75-11.88-.75-32.83Z"/>
    <path class="cls-8" d="M94.59,92.27c.54,0,1.01.41,1.01.98l1.01,24.05-1.01,12.54c0,.57-.47.98-1.01.98-.59,0-1.01-.41-1.06-.98l-.84-12.54.84-24.05c.05-.57.47-.98,1.06-.98Z"/>
    <path class="cls-10" d="M90.63,97.65c0-.52-.42-.93-.89-.93-.54,0-.9.41-.95.93l-.96,19.53.96,12.63c.05.52.41.92.95.92.47,0,.89-.41.89-.92l1.11-12.63-1.11-19.53Z"/>
    <path class="cls-16" d="M86.77,117.18l-1.11-12.02c-.05-.41-.42-.78-.84-.78s-.8.37-.8.78l-1.06,12.02,1.06,12.63c0,.46.39.81.8.81s.79-.35.84-.81l1.11-12.63Z"/>
    <path class="cls-13" d="M66.3,110.6c-.06-.26-.21-.46-.48-.46s-.42.2-.48.46l-.89,6.59.89,6.47c.06.26.21.46.48.46s.42-.2.48-.46l1.06-6.47-1.06-6.59Z"/>
    <path class="cls-11" d="M70.31,106.09c.27,0,.48.2.54.46l1.37,10.64-1.37,10.43c-.06.26-.27.46-.54.46s-.47-.2-.47-.52l-1.22-10.38,1.22-10.64c0-.26.21-.46.47-.46Z"/>
    <path class="cls-14" d="M75.72,104.59c0-.35-.26-.61-.59-.61s-.59.26-.63.61l-1.1,12.6,1.1,12.17c.06.32.33.57.63.57.33,0,.59-.26.59-.57l1.32-12.17-1.32-12.6Z"/>
    <path class="cls-5" d="M79.95,103.57c.36,0,.69.26.74.67l1.22,12.95-1.22,12.54c-.05.41-.38.67-.74.67s-.69-.26-.69-.67l-1.1-12.54,1.1-12.95c0-.41.33-.67.69-.67Z"/>
    <path class="cls-15" d="M120.83,85.89c.42.26.69.72.75,1.24l.62,30.11-.59,10.84-.05,1.24c0,.43-.16.78-.48,1.04-.27.26-.65.46-1.07.46-.47,0-.89-.22-1.21-.57-.21-.26-.33-.55-.33-.87v-.06c-.59-12.08-.59-12.13-.59-12.13l.53-29.74.06-.31c0-.52.27-.98.69-1.24.24-.15.53-.26.84-.26s.57.11.83.26Z"/>
    <path class="cls-6" d="M100.78,91.18c-.04-.61-.51-1.13-1.16-1.13-.59,0-1.1.52-1.1,1.13l-.84,26.01.84,12.43c.05.61.53,1.07,1.1,1.07.63,0,1.1-.46,1.16-1.07l.95-12.43-.95-26.01Z"/>
    <path class="cls-2" d="M114.85,90.51c.8,0,1.37.61,1.43,1.44l.74,25.29-.74,12.14c0,.78-.63,1.39-1.43,1.39s-1.42-.61-1.48-1.39l-.63-12.14.63-25.29c.06-.83.68-1.44,1.48-1.44Z"/>
    <path class="cls-12" d="M105.92,90.31c-.05-.67-.59-1.24-1.27-1.24-.63,0-1.22.57-1.22,1.24l-.74,26.88.74,12.38c.06.67.59,1.18,1.22,1.18.68,0,1.22-.52,1.27-1.18l.84-12.38-.84-26.88Z"/>
    <path class="cls-1" d="M109.73,89.7c.74,0,1.32.55,1.32,1.28l.8,26.21-.8,12.28c0,.7-.59,1.28-1.32,1.28s-1.26-.55-1.31-1.28l-.75-12.28.75-26.21c0-.7.57-1.28,1.31-1.28Z"/>
    <path class="cls-7" d="M239.08,94.9v-41.83h5.21v37.14h20.18v4.7h-25.39ZM270.49,59.65c-1.74,0-3.16-1.42-3.16-3.16s1.42-3.16,3.16-3.16,3.16,1.39,3.16,3.16-1.39,3.16-3.16,3.16ZM267.97,94.9v-30.15h5.04v30.15h-5.04ZM288.8,95.48c-7.1,0-11.39-3.62-12-9.02l-.03-.26h5.04l.06.29c.61,3.01,2.84,4.78,6.96,4.78s6.52-1.71,6.52-4.44v-.03c0-2.17-1.13-3.39-4.55-4.23l-4.78-1.16c-5.69-1.36-8.44-4-8.44-8.35v-.03c0-5.19,4.55-8.87,11.07-8.87s10.82,3.86,11.19,8.9l.03.38h-4.81l-.03-.2c-.4-2.93-2.64-4.87-6.38-4.87s-5.91,1.77-5.91,4.43v.03c0,2.06,1.36,3.48,4.7,4.29l4.78,1.16c6.09,1.48,8.29,3.89,8.29,8.17v.03c0,5.28-4.99,8.99-11.71,8.99ZM313.78,95.48c-5.54,0-8.27-2.49-8.27-8.26v-18.29h-4.4v-4.17h4.4v-8.15h5.22v8.15h5.74v4.17h-5.74v18.26c0,3.22,1.42,4.12,4.12,4.12.61,0,1.19-.09,1.62-.12v4.09c-.64.09-1.71.2-2.69.2ZM331.65,95.48c-8.67,0-13.89-6.06-13.89-15.54v-.03c0-9.33,5.34-15.74,13.57-15.74s13.25,6.12,13.25,15.16v1.86h-21.71c.11,6.2,3.53,9.83,8.9,9.83,3.82,0,6.52-1.91,7.39-4.49l.09-.26h4.95l-.05.29c-.99,4.99-5.92,8.93-12.5,8.93ZM331.3,68.64c-4.38,0-7.8,2.99-8.35,8.61h16.5c-.49-5.86-3.74-8.61-8.15-8.61ZM347.9,94.9v-30.15h5.05v4.29h.11c1.63-2.81,4.7-4.87,9.28-4.87,6.61,0,10.44,4.29,10.44,11.16v19.57h-5.05v-18.67c0-4.9-2.29-7.6-6.93-7.6s-7.85,3.39-7.85,8.52v17.74h-5.05ZM400.32,95.48c-8.38,0-13.97-6.06-13.97-15.65v-.06c0-9.6,5.62-15.6,13.94-15.6s13.98,5.97,13.98,15.6v.06c0,9.62-5.63,15.65-13.95,15.65ZM400.35,91.02c5.3,0,8.75-4.12,8.75-11.19v-.06c0-7.07-3.47-11.13-8.81-11.13s-8.78,4.09-8.78,11.13v.06c0,7.1,3.51,11.19,8.84,11.19ZM417.59,94.9v-30.15h5.04v4.29h.12c1.62-2.81,4.69-4.87,9.27-4.87,6.61,0,10.44,4.29,10.44,11.16v19.57h-5.04v-18.67c0-4.9-2.29-7.6-6.93-7.6s-7.86,3.39-7.86,8.52v17.74h-5.04Z"/>
    <path class="cls-17" d="M250.97,161.01c-8.33,0-13.81-3.92-14.24-10.44l-.03-.38h6.22l.05.3c.47,3.12,3.67,5.06,8.22,5.06s7.45-2.04,7.45-5.16v-.02c0-2.72-1.89-4.18-6.57-5.16l-3.9-.8c-7.14-1.48-10.66-4.8-10.66-10.21v-.02c.02-6.39,5.63-10.72,13.46-10.72s13.1,4.18,13.48,10.39l.03.43h-6.22l-.05-.3c-.43-3.17-3.22-5.06-7.29-5.06-4.26.03-6.9,2.01-6.9,4.91v.02c0,2.57,1.99,4.08,6.37,4.98l3.92.8c7.55,1.56,10.84,4.63,10.84,10.29v.02c0,6.77-5.33,11.07-14.18,11.07ZM286.01,161.01c-10.62,0-17.23-7.22-17.23-18.77v-.05c0-11.52,6.66-18.74,17.23-18.74s17.21,7.22,17.21,18.74v.05c0,11.55-6.59,18.77-17.21,18.77ZM286.01,155.37c6.57,0,10.62-5.13,10.62-13.13v-.05c0-8.05-4.13-13.11-10.62-13.11s-10.62,5.03-10.62,13.11v.05c0,8.08,4.13,13.13,10.62,13.13ZM323.34,161.01c-9.2,0-14.94-5.41-14.94-13.43v-23.5h6.49v22.97c0,5.03,3.07,8.33,8.45,8.33s8.43-3.3,8.43-8.33v-22.97h6.47v23.5c0,8.02-5.66,13.43-14.9,13.43ZM344.68,160.38v-36.3h5.83l17.69,25.43h.15v-25.43h6.44v36.3h-5.79l-17.73-25.53h-.13v25.53h-6.46ZM381.2,160.38v-36.3h13.26c10.82,0,17.26,6.54,17.26,18.01v.05c0,11.5-6.39,18.24-17.26,18.24h-13.26ZM387.69,154.89h6.09c7.3,0,11.32-4.45,11.32-12.73v-.05c0-8.1-4.1-12.55-11.32-12.55h-6.09v25.33ZM432.67,161.01c-10.44,0-17.03-7.2-17.03-18.79v-.02c0-11.6,6.62-18.74,17.03-18.74,8.36,0,14.49,5.21,15.45,12.6l.03.25h-6.37l-.12-.48c-1.06-4.15-4.26-6.74-8.99-6.74-6.34,0-10.39,5.06-10.39,13.11v.02c0,8.08,4.08,13.16,10.39,13.16,4.63,0,7.88-2.49,9.06-6.97l.08-.25h6.36l-.05.25c-.93,7.45-7.09,12.6-15.45,12.6ZM453.1,160.38v-36.3h6.49v30.84h16.48v5.46h-22.97ZM495.21,161.01c-10.61,0-17.23-7.22-17.23-18.77v-.05c0-11.52,6.67-18.74,17.23-18.74s17.21,7.22,17.21,18.74v.05c0,11.55-6.59,18.77-17.21,18.77ZM495.21,155.37c6.57,0,10.62-5.13,10.62-13.13v-.05c0-8.05-4.13-13.11-10.62-13.11s-10.61,5.03-10.61,13.11v.05c0,8.08,4.12,13.13,10.61,13.13ZM532.55,161.01c-9.21,0-14.95-5.41-14.95-13.43v-23.5h6.49v22.97c0,5.03,3.07,8.33,8.46,8.33s8.42-3.3,8.42-8.33v-22.97h6.47v23.5c0,8.02-5.66,13.43-14.89,13.43ZM553.88,160.38v-36.3h13.26c10.81,0,17.25,6.54,17.25,18.01v.05c0,11.5-6.39,18.24-17.25,18.24h-13.26ZM560.37,154.89h6.09c7.29,0,11.32-4.45,11.32-12.73v-.05c0-8.1-4.1-12.55-11.32-12.55h-6.09v25.33Z"/>
  </g>
</svg>