<?xml version="1.0" encoding="UTF-8"?>
<svg id="Layer_2" data-name="Layer 2" xmlns="http://www.w3.org/2000/svg" viewBox="0 0 658.05 205.33">
  <defs>
    <style>
      .cls-1 {
        fill: #fff;
      }

      .cls-2 {
        fill: #27a9b8;
      }

      .cls-3 {
        fill: none;
        stroke: #27a9b8;
        stroke-width: 4.95px;
      }
    </style>
  </defs>
  <g id="_Ñëîé_1" data-name="Ñëîé 1">
    <g>
      <path class="cls-2" d="M208.45,153.47v-64.02h7.85v23.27h.18c3.39-4.9,8.02-7.13,13.46-7.22,12.39,0,19.44,10.16,19.44,23.27,0,11.14-4.64,26.03-20.51,26.03-7.93,0-11.23-4.55-12.84-7.13h-.18v5.8h-7.4ZM228.51,112.54c-11.32,0-12.57,12.21-12.57,19.79,0,12.39,7.76,15.69,12.75,15.69,8.56,0,12.57-7.76,12.57-18.01,0-5.97-.62-17.48-12.75-17.48Z"/>
      <path class="cls-2" d="M253.92,121.01c.36-11.14,7.76-15.51,19.26-15.51,3.74,0,17.3,1.07,17.3,13.02v26.84c0,1.96.98,2.76,2.59,2.76.71,0,1.69-.18,2.59-.36v5.71c-1.34.36-2.5.89-4.28.89-6.95,0-8.02-3.57-8.29-7.13-3.03,3.3-7.76,7.58-16.85,7.58-8.56,0-14.62-5.44-14.62-13.46,0-3.92,1.16-13.02,14.18-14.62l12.93-1.6c1.87-.18,4.1-.89,4.1-5.53,0-4.9-3.57-7.58-10.97-7.58-8.92,0-10.16,5.44-10.7,9.01h-7.22ZM282.63,129.66c-1.25.98-3.21,1.69-12.93,2.94-3.83.53-9.99,1.69-9.99,7.58,0,5.08,2.59,8.11,8.47,8.11,7.31,0,14.44-4.73,14.44-10.97v-7.67Z"/>
      <path class="cls-2" d="M337.29,153.47h-7.85v-28.71c0-8.11-2.32-12.21-9.99-12.21-4.46,0-12.3,2.85-12.3,15.51v25.41h-7.85v-46.63h7.4v6.6h.18c1.69-2.5,6.06-7.94,14.09-7.94,7.22,0,16.32,2.94,16.32,16.23v31.74Z"/>
      <path class="cls-2" d="M383.11,153.47h-7.4v-6.42h-.18c-3.39,6.33-8.74,7.76-13.28,7.76-15.87,0-20.51-14.89-20.51-26.03,0-13.11,7.04-23.27,19.44-23.27,8.47,0,12.04,5.26,13.91,7.94h.18v-23.98h7.85v64.02ZM362.43,148.03c4.99,0,12.75-3.3,12.75-15.69,0-7.58-1.25-19.79-12.57-19.79-12.13,0-12.75,11.5-12.75,17.48,0,10.25,4.01,18.01,12.57,18.01Z"/>
      <path class="cls-2" d="M422.26,122.53c-.98-6.24-4.46-9.99-11.06-9.99-9.72,0-12.84,9.27-12.84,17.56s1.96,17.92,12.75,17.92c5.26,0,9.81-3.92,11.15-11.06h7.58c-.8,7.4-5.35,17.83-18.99,17.83s-20.86-9.9-20.86-23.36c0-14.44,6.95-25.95,22.38-25.95,12.21,0,16.85,8.92,17.47,17.03h-7.58Z"/>
      <path class="cls-2" d="M432.96,121.01c.36-11.14,7.76-15.51,19.26-15.51,3.74,0,17.3,1.07,17.3,13.02v26.84c0,1.96.98,2.76,2.59,2.76.71,0,1.69-.18,2.59-.36v5.71c-1.34.36-2.5.89-4.28.89-6.95,0-8.02-3.57-8.29-7.13-3.03,3.3-7.76,7.58-16.85,7.58-8.56,0-14.62-5.44-14.62-13.46,0-3.92,1.16-13.02,14.18-14.62l12.93-1.6c1.87-.18,4.1-.89,4.1-5.53,0-4.9-3.57-7.58-10.97-7.58-8.92,0-10.16,5.44-10.7,9.01h-7.22ZM461.66,129.66c-1.25.98-3.21,1.69-12.93,2.94-3.83.53-9.99,1.69-9.99,7.58,0,5.08,2.58,8.11,8.47,8.11,7.31,0,14.44-4.73,14.44-10.97v-7.67Z"/>
      <path class="cls-2" d="M478.34,106.84h7.4v6.6h.18c1.69-2.5,5.71-7.94,14.09-7.94s11.06,5.08,12.39,7.58c3.92-4.37,7.04-7.58,14.26-7.58,4.99,0,14.44,2.59,14.44,15.69v32.28h-7.85v-30.14c0-6.42-1.96-10.79-8.65-10.79s-10.97,6.24-10.97,12.48v28.44h-7.85v-32.28c0-3.92-1.52-8.65-7.31-8.65-4.46,0-12.3,2.85-12.3,15.51v25.41h-7.85v-46.63Z"/>
      <path class="cls-2" d="M547.53,106.84h7.4v6.6h.18c1.87-2.67,5.44-7.94,13.91-7.94,12.39,0,19.44,10.16,19.44,23.27,0,11.14-4.64,26.03-20.51,26.03-6.24,0-10.34-2.94-12.39-6.24h-.18v23.36h-7.85v-65.09ZM567.77,148.03c8.56,0,12.57-7.76,12.57-18.01,0-5.97-.62-17.48-12.75-17.48-11.32,0-12.57,12.21-12.57,19.79,0,12.39,7.76,15.69,12.75,15.69Z"/>
    </g>
    <polygon class="cls-2" points="135.11 147.42 33.72 147.42 73.16 62.09 174.54 62.09 135.11 147.42"/>
    <rect class="cls-3" x="2.47" y="2.47" width="653.11" height="200.38" rx="49.48" ry="49.48"/>
    <path class="cls-1" d="M207.5,77.76v-41.83h5.22v37.14h20.18v4.7h-25.4ZM238.92,42.5c-1.74,0-3.16-1.42-3.16-3.16s1.42-3.16,3.16-3.16,3.16,1.39,3.16,3.16-1.39,3.16-3.16,3.16ZM236.4,77.76v-30.15h5.04v30.15h-5.04ZM257.23,78.34c-7.11,0-11.4-3.62-12.01-9.02l-.02-.26h5.04l.06.29c.61,3.01,2.84,4.78,6.96,4.78s6.52-1.71,6.52-4.44v-.03c0-2.17-1.13-3.39-4.55-4.23l-4.79-1.16c-5.68-1.36-8.43-4-8.43-8.35v-.03c0-5.19,4.55-8.87,11.07-8.87s10.82,3.86,11.19,8.9l.03.38h-4.81l-.03-.2c-.41-2.93-2.64-4.87-6.38-4.87s-5.91,1.77-5.91,4.44v.03c0,2.06,1.36,3.48,4.69,4.29l4.79,1.16c6.09,1.48,8.29,3.88,8.29,8.18v.03c0,5.28-4.99,8.99-11.71,8.99ZM282.2,78.34c-5.53,0-8.26-2.49-8.26-8.26v-18.29h-4.4v-4.18h4.4v-8.15h5.22v8.15h5.74v4.18h-5.74v18.26c0,3.22,1.42,4.12,4.12,4.12.61,0,1.19-.09,1.62-.12v4.09c-.64.09-1.71.2-2.7.2ZM300.08,78.34c-8.67,0-13.89-6.06-13.89-15.54v-.03c0-9.34,5.34-15.74,13.57-15.74s13.25,6.12,13.25,15.16v1.86h-21.72c.12,6.2,3.54,9.83,8.9,9.83,3.83,0,6.53-1.91,7.4-4.49l.08-.26h4.96l-.06.29c-.98,4.99-5.91,8.93-12.49,8.93ZM299.73,51.49c-4.38,0-7.8,2.99-8.35,8.61h16.5c-.5-5.86-3.74-8.61-8.15-8.61ZM316.33,77.76v-30.15h5.04v4.29h.12c1.62-2.81,4.7-4.87,9.28-4.87,6.61,0,10.43,4.29,10.43,11.16v19.57h-5.04v-18.67c0-4.9-2.29-7.6-6.93-7.6s-7.86,3.39-7.86,8.52v17.74h-5.04ZM368.75,78.34c-8.38,0-13.97-6.06-13.97-15.65v-.06c0-9.6,5.62-15.6,13.94-15.6s13.97,5.97,13.97,15.6v.06c0,9.62-5.62,15.65-13.94,15.65ZM368.78,73.87c5.3,0,8.75-4.12,8.75-11.19v-.06c0-7.07-3.48-11.13-8.81-11.13s-8.78,4.09-8.78,11.13v.06c0,7.1,3.5,11.19,8.84,11.19ZM386.01,77.76v-30.15h5.05v4.29h.12c1.62-2.81,4.69-4.87,9.27-4.87,6.61,0,10.44,4.29,10.44,11.16v19.57h-5.05v-18.67c0-4.9-2.29-7.6-6.92-7.6s-7.86,3.39-7.86,8.52v17.74h-5.05Z"/>
  </g>
</svg>