<?xml version="1.0" encoding="UTF-8"?>
<svg id="Layer_2" data-name="Layer 2" xmlns="http://www.w3.org/2000/svg" xmlns:xlink="http://www.w3.org/1999/xlink" viewBox="0 0 623.42 202.86">
  <defs>
    <style>
      .cls-1 {
        fill: #fff;
      }

      .cls-2, .cls-3, .cls-4 {
        fill: none;
      }

      .cls-5 {
        fill: red;
      }

      .cls-3 {
        stroke-width: 3.71px;
      }

      .cls-3, .cls-4 {
        stroke: red;
      }

      .cls-4 {
        stroke-width: 4.95px;
      }

      .cls-6 {
        clip-path: url(#clippath);
      }
    </style>
    <clipPath id="clippath">
      <rect class="cls-2" x="51.95" y="42.64" width="117.56" height="117.56"/>
    </clipPath>
  </defs>
  <g id="Layer_1-2" data-name="Layer 1">
    <rect class="cls-4" x="2.47" y="2.47" width="618.47" height="197.91" rx="49.48" ry="49.48"/>
    <g class="cls-6">
      <g>
        <path class="cls-3" d="M110.73,160.2c32.46,0,58.78-26.31,58.78-58.78s-26.32-58.78-58.78-58.78-58.78,26.32-58.78,58.78,26.32,58.78,58.78,58.78Z"/>
        <path class="cls-5" d="M110.73,73.37c15.43,0,28.05,12.56,28.05,28.05s-12.55,28.06-28.05,28.06-28.05-12.56-28.05-28.06,12.62-28.05,28.05-28.05ZM110.73,70.7c-16.97,0-30.73,13.76-30.73,30.72s13.76,30.73,30.73,30.73,30.72-13.76,30.72-30.73-13.76-30.72-30.72-30.72Z"/>
        <path class="cls-5" d="M100.04,116.78l26.05-16.03-26.05-14.69v30.72Z"/>
      </g>
    </g>
    <path class="cls-5" d="M220.75,124.77l9-17.16h8.52l-13.53,25.25v20.84h-7.79v-20.84l-13.47-25.25h8.39l8.88,17.16ZM254.88,137.21c0-1.57-.18-3.08-.55-4.53-.36-1.49-.86-2.72-1.51-3.69-.64-.96-1.39-1.65-2.23-2.05-.85-.44-1.65-.66-2.42-.66s-1.57.22-2.41.66c-.85.4-1.61,1.09-2.3,2.05-.6.97-1.09,2.2-1.45,3.69-.36,1.45-.54,2.96-.54,4.53s.18,3.02.54,4.47c.36,1.41.85,2.62,1.45,3.62.69.97,1.45,1.65,2.3,2.06.84.4,1.65.6,2.41.6s1.57-.2,2.42-.6c.84-.41,1.59-1.09,2.23-2.06.65-1,1.15-2.21,1.51-3.62.37-1.45.55-2.94.55-4.47ZM262.79,137.21c0,2.29-.34,4.53-1.03,6.7-.64,2.14-1.59,3.99-2.84,5.56-1.33,1.61-2.94,2.84-4.83,3.68-1.89.85-3.86,1.27-5.92,1.27s-4.02-.42-5.92-1.27c-1.89-.84-3.5-2.07-4.83-3.68-1.25-1.57-2.21-3.42-2.9-5.56-.64-2.17-.96-4.41-.96-6.7s.32-4.57.96-6.71c.69-2.17,1.65-4.04,2.9-5.61,1.33-1.65,2.94-2.9,4.83-3.75,1.9-.88,3.87-1.33,5.92-1.33s4.03.45,5.92,1.33c1.89.85,3.5,2.1,4.83,3.75,1.25,1.57,2.2,3.44,2.84,5.61.69,2.14,1.03,4.37,1.03,6.71ZM266.05,120.54h7.67v20.59c0,2.26.44,4.05,1.33,5.38.6.77,1.59,1.15,2.96,1.15,1.17,0,2.33-.67,3.5-2,1.17-1.32,2.04-3.38,2.6-6.16.16-.72.26-1.41.3-2.05.08-.68.12-1.47.12-2.36v-14.55h7.61v33.16h-7.61v-2.66c-.52.81-1.45,1.59-2.78,2.36-1.28.72-2.63,1.08-4.04,1.08-3.71,0-6.57-1-8.58-3.02-2.05-2.05-3.08-5.01-3.08-8.88v-22.04ZM326.93,114.62h-12.08v39.08h-7.79v-39.08h-12.08v-7.01h31.95v7.01ZM324.94,120.54h7.67v20.59c0,2.26.44,4.05,1.33,5.38.6.77,1.59,1.15,2.96,1.15,1.16,0,2.33-.67,3.5-2,1.17-1.32,2.03-3.38,2.6-6.16.16-.72.26-1.41.3-2.05.08-.68.12-1.47.12-2.36v-14.55h7.61v33.16h-7.61v-2.66c-.52.81-1.45,1.59-2.78,2.36-1.29.72-2.64,1.08-4.04,1.08-3.71,0-6.57-1-8.58-3.02-2.05-2.05-3.08-5.01-3.08-8.88v-22.04ZM375.73,137.21c0-1.57-.18-3.08-.54-4.53-.32-1.45-.79-2.66-1.39-3.62-.56-.97-1.25-1.66-2.05-2.06-.77-.4-1.49-.6-2.18-.6-.6,0-1.29.26-2.05.78-.77.49-1.41,1.17-1.93,2.06-.69,1.04-1.21,2.25-1.57,3.62-.33,1.33-.49,2.78-.49,4.35s.16,3.02.49,4.47c.36,1.41.84,2.62,1.45,3.62.56.97,1.22,1.65,1.99,2.06.76.36,1.47.54,2.11.54.69,0,1.41-.18,2.18-.54.8-.41,1.49-1.09,2.05-2.06.56-1,1.03-2.21,1.39-3.62.36-1.45.54-2.94.54-4.47ZM369.63,154.42c-2.25,0-4.25-.38-5.98-1.15-1.73-.8-3.18-1.99-4.35-3.56-1.04-1.45-1.89-3.28-2.53-5.5-.61-2.21-.91-4.65-.91-7.3v-29.3h7.61v15.16c1.73-1.97,3.87-2.96,6.4-2.96,2.3,0,4.35.51,6.16,1.51,1.86.97,3.33,2.26,4.41,3.87,1.09,1.53,1.88,3.34,2.36,5.44.48,2.05.72,4.14.72,6.28,0,2.65-.32,5.09-.96,7.3-.61,2.22-1.45,4.05-2.54,5.5-1.13,1.57-2.58,2.76-4.35,3.56-1.77.77-3.78,1.15-6.04,1.15ZM393.25,133.46h11.53c0-1.89-.34-3.5-1.02-4.83-.41-.68-.97-1.23-1.69-1.63-.69-.44-1.45-.66-2.3-.66-1.73,0-3.28.86-4.65,2.59-.93,1.17-1.55,2.68-1.87,4.53ZM393.43,139.99c.12.56.28,1.14.48,1.75.32.92.83,1.85,1.51,2.78.73.92,1.61,1.73,2.66,2.41.36.2.91.41,1.63.61.73.2,1.61.3,2.66.3,1.21,0,2.57-.2,4.11-.61,1.53-.44,3.24-1.22,5.13-2.35v6.76c-2.22,1.29-4.33,2.14-6.34,2.54-2.02.36-4.05.44-6.1.24-1.77-.24-3.55-.78-5.32-1.63-1.73-.88-3.14-1.91-4.23-3.08-1.24-1.49-2.29-3.34-3.14-5.56-.84-2.21-1.26-4.75-1.26-7.61,0-2.41.3-4.61.9-6.58.65-2.01,1.57-3.74,2.78-5.19,1.17-1.45,2.66-2.64,4.47-3.57,1.85-.92,4.01-1.39,6.46-1.39,2.05,0,3.97.45,5.74,1.33,1.77.89,3.16,2.02,4.17,3.39,1.81,2.37,2.71,6.3,2.71,11.77v3.69h-19.02ZM474.54,153.7h-7.3v-29.6l-9.61,29.6h-5.92l-9.54-29.6v29.6h-7.37v-46.09h9l10.93,33.95,10.81-33.95h9v46.09ZM479.74,120.54h7.67v20.59c0,2.26.44,4.05,1.33,5.38.6.77,1.59,1.15,2.96,1.15,1.16,0,2.33-.67,3.5-2,1.17-1.32,2.03-3.38,2.6-6.16.16-.72.26-1.41.3-2.05.08-.68.12-1.47.12-2.36v-14.55h7.61v33.16h-7.61v-2.66c-.52.81-1.45,1.59-2.78,2.36-1.29.72-2.64,1.08-4.05,1.08-3.7,0-6.56-1-8.57-3.02-2.06-2.05-3.08-5.01-3.08-8.88v-22.04ZM532.1,144.46c0,1.45-.26,2.8-.78,4.04-.49,1.25-1.23,2.3-2.24,3.14-1.08.89-2.55,1.57-4.41,2.06-1.81.48-3.76.72-5.86.72-2.41,0-5.69-.64-9.84-1.93v-7.97c1.89,1.12,3.72,1.97,5.5,2.53,1.81.53,3.26.79,4.34.79,1.86,0,3.19-.18,3.99-.54,1.09-.69,1.63-1.53,1.63-2.54,0-.73-.2-1.33-.6-1.81-.36-.53-.95-1.01-1.75-1.45-.77-.45-1.9-.95-3.39-1.51-1.45-.61-2.9-1.27-4.34-2-1.25-.64-2.44-1.65-3.57-3.02-1.13-1.36-1.69-3.16-1.69-5.37,0-3.1,1.09-5.5,3.26-7.19,2.22-1.73,5.04-2.6,8.46-2.6,2.9,0,6.1.61,9.6,1.82v7.55c-2.17-1.13-3.99-1.9-5.43-2.3-1.45-.4-2.88-.6-4.29-.6-1.21,0-2.2.24-2.96.72-.73.48-1.09,1.19-1.09,2.12,0,.6.12,1.1.36,1.51.28.4.73.82,1.33,1.26.69.41,1.87.95,3.56,1.63,1.7.69,3.21,1.35,4.53,2,1.49.8,2.8,1.93,3.93,3.38,1.17,1.41,1.75,3.26,1.75,5.56ZM543.4,116.43h-8.64v-8.82h8.64v8.82ZM543.03,153.7h-7.79v-33.16h7.79v33.16ZM573.78,132.8h-7.98c0-2.17-.4-3.79-1.2-4.83-.81-1.09-1.98-1.63-3.51-1.63-1.73,0-3.28.88-4.65,2.65-1.33,1.74-1.99,4.27-1.99,7.61,0,.77.08,1.6.24,2.48.16.89.38,1.75.67,2.6.32,1,.8,1.97,1.44,2.9.69.92,1.55,1.71,2.6,2.35.36.2.91.41,1.63.61.73.2,1.61.3,2.66.3.68,0,1.79-.14,3.32-.42,1.53-.33,3.5-1.15,5.92-2.48v6.7c-2.21,1.29-4.33,2.14-6.34,2.54-2.01.36-4.05.44-6.1.24-1.77-.24-3.54-.78-5.32-1.63-1.73-.88-3.14-1.91-4.22-3.08-1.25-1.49-2.3-3.34-3.14-5.56-.85-2.21-1.27-4.75-1.27-7.61,0-2.41.3-4.61.9-6.58.65-2.01,1.57-3.74,2.78-5.19,1.17-1.49,2.7-2.68,4.59-3.57,1.89-.92,4.05-1.39,6.46-1.39,1.78,0,3.41.31,4.9.91,1.49.56,2.77,1.33,3.86,2.3,1.13.96,2.04,2.17,2.72,3.62.68,1.41,1.03,3.46,1.03,6.16Z"/>
    <g>
      <path class="cls-1" d="M222.66,54.57c-.17.28-.35.49-.55.63-.2.14-.43.21-.71.21-.32,0-.69-.16-1.12-.48-.43-.32-.97-.67-1.61-1.05-.64-.38-1.42-.73-2.32-1.05-.91-.32-2-.48-3.29-.48-1.21,0-2.28.16-3.21.49-.92.33-1.7.77-2.32,1.33-.63.56-1.1,1.22-1.41,1.97-.32.76-.48,1.57-.48,2.45,0,1.12.28,2.05.83,2.79.55.74,1.28,1.37,2.18,1.89.91.52,1.93.98,3.08,1.36,1.15.38,2.32.78,3.53,1.19,1.2.41,2.38.87,3.53,1.38s2.17,1.16,3.08,1.95c.91.78,1.63,1.74,2.18,2.88.55,1.14.83,2.54.83,4.2,0,1.75-.3,3.4-.9,4.94-.6,1.54-1.47,2.88-2.62,4.02s-2.56,2.04-4.23,2.69c-1.67.65-3.57.98-5.7.98-2.61,0-4.98-.47-7.11-1.41-2.13-.94-3.95-2.22-5.46-3.82l1.57-2.58c.15-.21.33-.38.55-.52.21-.14.45-.21.71-.21.24,0,.52.1.83.29.31.2.66.44,1.05.74.39.3.84.62,1.34.98s1.08.68,1.72.98,1.38.54,2.2.74c.82.2,1.75.29,2.77.29,1.29,0,2.44-.18,3.44-.53,1.01-.36,1.86-.86,2.56-1.5.7-.64,1.24-1.41,1.61-2.31.37-.9.56-1.89.56-3,0-1.21-.28-2.21-.83-2.98-.55-.77-1.27-1.42-2.17-1.95s-1.92-.97-3.08-1.33c-1.16-.36-2.33-.74-3.53-1.12-1.19-.38-2.37-.82-3.53-1.33-1.16-.51-2.18-1.16-3.08-1.96-.9-.8-1.62-1.81-2.17-3.01-.55-1.21-.83-2.69-.83-4.47,0-1.42.27-2.79.83-4.12s1.35-2.5,2.41-3.53c1.05-1.03,2.35-1.85,3.89-2.46s3.31-.92,5.31-.92c2.24,0,4.28.36,6.12,1.06,1.84.71,3.46,1.73,4.86,3.08l-1.32,2.58Z"/>
      <path class="cls-1" d="M252.42,60.06v28.37h-2.97c-.71,0-1.16-.35-1.34-1.04l-.39-3.05c-1.23,1.36-2.61,2.46-4.14,3.29s-3.29,1.25-5.26,1.25c-1.55,0-2.92-.26-4.1-.77-1.19-.51-2.18-1.24-2.98-2.17-.8-.93-1.4-2.06-1.81-3.39-.4-1.32-.6-2.79-.6-4.4v-18.09h4.98v18.09c0,2.15.49,3.81,1.47,4.98s2.48,1.76,4.49,1.76c1.47,0,2.85-.35,4.13-1.05,1.28-.7,2.46-1.67,3.54-2.9v-20.89h4.98Z"/>
      <path class="cls-1" d="M263.65,64.15c1.19-1.38,2.54-2.48,4.05-3.3,1.5-.82,3.23-1.23,5.19-1.23,1.66,0,3.16.32,4.49.95,1.33.63,2.47,1.55,3.4,2.76.93,1.2,1.65,2.66,2.14,4.38.49,1.72.74,3.65.74,5.8,0,2.29-.28,4.39-.84,6.27s-1.37,3.5-2.42,4.83-2.34,2.37-3.85,3.11c-1.51.74-3.21,1.11-5.1,1.11s-3.44-.35-4.72-1.05c-1.28-.7-2.39-1.69-3.35-2.98l-.25,2.58c-.15.71-.58,1.06-1.29,1.06h-3.22v-41.24h5.01v16.97ZM263.65,81.59c.91,1.23,1.92,2.1,3.01,2.6,1.09.5,2.29.76,3.6.76,2.67,0,4.71-.94,6.13-2.83,1.42-1.88,2.13-4.69,2.13-8.43,0-3.47-.63-6.02-1.89-7.66-1.26-1.63-3.06-2.45-5.39-2.45-1.62,0-3.04.37-4.24,1.12-1.2.75-2.32,1.8-3.35,3.16v13.72Z"/>
      <path class="cls-1" d="M304.84,64.73c-.22.41-.57.62-1.04.62-.28,0-.6-.1-.95-.31-.35-.21-.79-.43-1.3-.69-.51-.25-1.12-.48-1.83-.7-.71-.21-1.55-.32-2.52-.32-.84,0-1.6.11-2.27.32-.67.21-1.25.51-1.72.88s-.84.81-1.09,1.3-.38,1.03-.38,1.61c0,.73.21,1.34.63,1.82.42.49.98.91,1.67,1.26.69.36,1.47.67,2.35.94.88.27,1.78.56,2.7.87.92.31,1.82.65,2.7,1.02.88.37,1.66.84,2.35,1.4.69.56,1.25,1.25,1.67,2.06.42.81.63,1.79.63,2.93,0,1.31-.23,2.52-.7,3.62-.47,1.11-1.16,2.07-2.07,2.88-.92.81-2.03,1.45-3.36,1.92-1.33.47-2.86.7-4.59.7-1.98,0-3.77-.32-5.38-.96-1.61-.64-2.97-1.47-4.09-2.48l1.18-1.9c.15-.24.33-.43.53-.56.21-.13.47-.2.78-.2.34,0,.69.13,1.06.39.37.26.83.55,1.36.87.53.32,1.18.61,1.95.87.77.26,1.72.39,2.86.39.97,0,1.82-.12,2.55-.38s1.33-.59,1.82-1.02c.49-.43.84-.92,1.08-1.48.23-.56.35-1.16.35-1.79,0-.78-.21-1.43-.63-1.95-.42-.51-.98-.95-1.67-1.32-.69-.37-1.48-.68-2.37-.95-.89-.27-1.79-.55-2.72-.85-.92-.3-1.83-.64-2.72-1.02-.89-.38-1.68-.86-2.37-1.44-.69-.58-1.25-1.29-1.67-2.14-.42-.85-.63-1.88-.63-3.09,0-1.08.22-2.12.67-3.12.45-1,1.1-1.88,1.96-2.63.86-.76,1.91-1.36,3.16-1.81,1.25-.45,2.68-.67,4.28-.67,1.87,0,3.54.29,5.03.88,1.48.59,2.77,1.39,3.85,2.42l-1.12,1.82Z"/>
      <path class="cls-1" d="M330.63,65.1c-.15.21-.3.36-.45.48-.15.11-.35.17-.62.17-.28,0-.59-.12-.92-.35-.34-.23-.75-.49-1.25-.77-.5-.28-1.1-.54-1.82-.77-.72-.23-1.6-.35-2.65-.35-1.4,0-2.63.25-3.7.74-1.06.49-1.96,1.21-2.67,2.14-.72.93-1.26,2.06-1.62,3.39-.36,1.33-.55,2.81-.55,4.45s.2,3.24.59,4.58c.39,1.34.95,2.46,1.67,3.36.72.9,1.59,1.6,2.6,2.07,1.02.47,2.16.71,3.43.71s2.21-.14,3-.43c.78-.29,1.43-.61,1.95-.97.51-.35.94-.68,1.29-.96s.69-.44,1.02-.44c.41,0,.73.16.95.48l1.4,1.82c-.62.77-1.32,1.42-2.1,1.96-.78.54-1.63.99-2.53,1.36-.91.36-1.85.63-2.84.8s-2,.25-3.02.25c-1.77,0-3.42-.33-4.94-.98-1.52-.65-2.84-1.6-3.96-2.84-1.12-1.24-2-2.77-2.63-4.58-.64-1.81-.95-3.87-.95-6.19,0-2.11.29-4.06.88-5.85.59-1.79,1.45-3.34,2.58-4.63,1.13-1.3,2.52-2.31,4.17-3.04s3.55-1.09,5.7-1.09c2,0,3.76.32,5.28.97,1.52.64,2.87,1.55,4.05,2.73l-1.32,1.79Z"/>
      <path class="cls-1" d="M340.68,65.74c.9-1.94,2-3.46,3.3-4.55s2.9-1.64,4.79-1.64c.6,0,1.17.07,1.72.2.55.13,1.04.34,1.47.62l-.36,3.72c-.11.47-.39.7-.84.7-.26,0-.64-.06-1.15-.17-.5-.11-1.07-.17-1.71-.17-.9,0-1.69.13-2.39.39-.7.26-1.33.65-1.88,1.16s-1.05,1.15-1.48,1.9-.84,1.62-1.19,2.59v17.92h-5.01v-28.37h2.86c.54,0,.91.1,1.12.31s.35.56.42,1.06l.34,4.31Z"/>
      <path class="cls-1" d="M360.98,51.16c0,.48-.1.94-.29,1.36-.2.42-.46.79-.78,1.12-.33.33-.71.58-1.15.77-.44.19-.9.28-1.39.28s-.94-.09-1.36-.28c-.42-.19-.79-.44-1.11-.77-.32-.33-.57-.7-.76-1.12s-.28-.87-.28-1.36.09-.95.28-1.39.44-.82.76-1.15c.32-.33.69-.58,1.11-.77s.87-.28,1.36-.28.95.09,1.39.28.82.44,1.15.77c.33.33.59.71.78,1.15.2.44.29.9.29,1.39ZM359.91,60.06v28.37h-4.98v-28.37h4.98Z"/>
      <path class="cls-1" d="M371.42,64.15c1.19-1.38,2.54-2.48,4.05-3.3,1.5-.82,3.23-1.23,5.19-1.23,1.66,0,3.16.32,4.49.95,1.33.63,2.47,1.55,3.4,2.76.93,1.2,1.65,2.66,2.14,4.38.49,1.72.74,3.65.74,5.8,0,2.29-.28,4.39-.84,6.27s-1.37,3.5-2.42,4.83-2.34,2.37-3.85,3.11c-1.51.74-3.21,1.11-5.1,1.11s-3.44-.35-4.72-1.05c-1.28-.7-2.39-1.69-3.35-2.98l-.25,2.58c-.15.71-.58,1.06-1.29,1.06h-3.22v-41.24h5.01v16.97ZM371.42,81.59c.91,1.23,1.92,2.1,3.01,2.6,1.09.5,2.29.76,3.6.76,2.67,0,4.71-.94,6.13-2.83,1.42-1.88,2.13-4.69,2.13-8.43,0-3.47-.63-6.02-1.89-7.66-1.26-1.63-3.06-2.45-5.39-2.45-1.62,0-3.04.37-4.24,1.12-1.2.75-2.32,1.8-3.35,3.16v13.72Z"/>
      <path class="cls-1" d="M419.11,84.45c-.62.75-1.35,1.4-2.21,1.95-.86.55-1.78,1-2.76,1.36-.98.35-1.99.62-3.04.8-1.05.18-2.08.27-3.11.27-1.96,0-3.77-.33-5.42-.99-1.65-.66-3.08-1.63-4.28-2.91-1.2-1.28-2.14-2.86-2.81-4.75-.67-1.89-1.01-4.05-1.01-6.5,0-1.98.3-3.83.91-5.54.61-1.72,1.48-3.21,2.62-4.46,1.14-1.26,2.53-2.25,4.17-2.97s3.49-1.08,5.54-1.08c1.7,0,3.27.29,4.72.85,1.45.57,2.7,1.39,3.75,2.46,1.05,1.07,1.88,2.4,2.48,3.98.6,1.58.9,3.37.9,5.39,0,.79-.08,1.31-.25,1.57s-.49.39-.95.39h-18.96c.06,1.79.3,3.35.74,4.68.44,1.33,1.05,2.43,1.83,3.32.78.89,1.72,1.55,2.8,1.99,1.08.44,2.3.66,3.64.66,1.25,0,2.33-.14,3.23-.43.91-.29,1.68-.6,2.34-.94s1.2-.65,1.64-.94c.44-.29.82-.44,1.13-.44.41,0,.73.16.95.48l1.4,1.82ZM415.07,71.15c0-1.16-.16-2.21-.49-3.18-.33-.96-.8-1.79-1.43-2.49-.63-.7-1.39-1.24-2.28-1.62s-1.91-.57-3.05-.57c-2.39,0-4.28.7-5.67,2.09s-2.25,3.32-2.59,5.78h15.51Z"/>
      <path class="cls-1" d="M445.34,88.87c-2.24,0-3.96-.62-5.17-1.88-1.2-1.25-1.81-3.05-1.81-5.4v-17.36h-3.42c-.3,0-.55-.09-.76-.27-.21-.18-.31-.45-.31-.83v-1.99l4.65-.59,1.15-8.76c.06-.28.18-.51.38-.69.2-.18.45-.27.77-.27h2.52v9.77h8.2v3.61h-8.2v17.03c0,1.19.29,2.08.87,2.66.58.58,1.33.87,2.24.87.52,0,.98-.07,1.36-.21.38-.14.71-.29.99-.46.28-.17.52-.32.71-.46.2-.14.37-.21.52-.21.26,0,.49.16.7.48l1.46,2.38c-.86.8-1.9,1.43-3.11,1.89-1.21.46-2.46.69-3.75.69Z"/>
      <path class="cls-1" d="M466.85,59.61c2.07,0,3.94.35,5.6,1.04,1.66.69,3.08,1.67,4.26,2.94,1.18,1.27,2.08,2.8,2.7,4.61s.94,3.81.94,6.03-.31,4.26-.94,6.05c-.63,1.79-1.53,3.32-2.7,4.59-1.18,1.27-2.59,2.24-4.26,2.93-1.66.68-3.53,1.02-5.6,1.02s-3.97-.34-5.64-1.02c-1.67-.68-3.09-1.66-4.27-2.93-1.18-1.27-2.08-2.8-2.7-4.59-.63-1.79-.94-3.81-.94-6.05s.31-4.23.94-6.03c.62-1.8,1.53-3.34,2.7-4.61,1.18-1.27,2.6-2.25,4.27-2.94,1.67-.69,3.55-1.04,5.64-1.04ZM466.85,84.92c2.8,0,4.89-.94,6.27-2.81,1.38-1.88,2.07-4.49,2.07-7.85s-.69-6.01-2.07-7.9-3.47-2.83-6.27-2.83c-1.42,0-2.66.24-3.71.73-1.05.48-1.93,1.19-2.63,2.1s-1.22,2.04-1.57,3.37c-.35,1.34-.52,2.84-.52,4.52,0,3.36.7,5.98,2.09,7.85,1.39,1.88,3.5,2.81,6.34,2.81Z"/>
      <path class="cls-1" d="M497.62,88.42v-28.37h3c.71,0,1.15.35,1.32,1.04l.36,2.91c1.04-1.29,2.22-2.34,3.53-3.16,1.31-.82,2.82-1.23,4.54-1.23,1.9,0,3.45.53,4.63,1.6s2.04,2.5,2.56,4.31c.41-1.03.94-1.91,1.58-2.66s1.37-1.36,2.17-1.85c.8-.49,1.66-.84,2.56-1.06.9-.22,1.82-.34,2.76-.34,1.49,0,2.82.24,3.99.71,1.17.47,2.16,1.17,2.97,2.09.81.91,1.43,2.04,1.86,3.37.43,1.34.64,2.86.64,4.58v18.06h-5.01v-18.06c0-2.22-.49-3.91-1.46-5.05-.97-1.15-2.37-1.72-4.2-1.72-.82,0-1.6.14-2.34.43-.74.29-1.39.71-1.95,1.27-.56.56-1,1.27-1.33,2.12-.33.85-.49,1.83-.49,2.95v18.06h-5.01v-18.06c0-2.28-.46-3.98-1.37-5.1-.92-1.12-2.25-1.68-4-1.68-1.23,0-2.37.33-3.42.99-1.05.66-2.01,1.56-2.88,2.7v21.14h-5.01Z"/>
      <path class="cls-1" d="M565.77,60.06l-15.82,36.74c-.17.37-.38.67-.63.9-.25.22-.64.34-1.16.34h-3.7l5.18-11.26-11.7-26.71h4.31c.43,0,.77.11,1.02.32s.42.45.52.71l7.59,17.86c.3.79.55,1.61.76,2.46.26-.88.54-1.71.84-2.49l7.36-17.84c.11-.3.3-.55.57-.74.27-.2.57-.29.91-.29h3.95Z"/>
    </g>
  </g>
</svg>